<?xml version="1.0" encoding="UTF-8"?>
<svg width="26px" height="25px" viewBox="0 0 26 25" version="1.1" xmlns="http://www.w3.org/2000/svg" xmlns:xlink="http://www.w3.org/1999/xlink">
    <!-- Generator: Sketch 46.2 (44496) - http://www.bohemiancoding.com/sketch -->
    <title>037-moai</title>
    <desc>Created with Sketch.</desc>
    <defs></defs>
    <g id="Welcome" stroke="none" stroke-width="1" fill="none" fill-rule="evenodd">
        <g id="main" transform="translate(-1275.000000, -1118.000000)" fill-rule="nonzero" fill="#000000">
            <g id="Group-9" transform="translate(1267.000000, 556.000000)">
                <g id="Group-12">
                    <g id="Group-2-Copy-3">
                        <g id="037-moai" transform="translate(8.120595, 562.379347)">
                            <path d="M21.5561445,11.0565683 C21.428869,10.8823992 21.1844842,10.8443761 21.0104149,10.9716515 L20.5173098,11.3319995 C20.4166954,11.4054545 20.3572437,11.522514 20.3571939,11.6470984 C20.3571939,11.6671814 20.3375095,13.6616285 18.7415333,14.3808294 C18.5448892,14.4694339 18.4573313,14.7007124 18.5459357,14.8973066 C18.6110186,15.0418743 18.753294,15.1274389 18.9021475,15.1274389 C18.9557686,15.1274389 19.0102868,15.116326 19.0623631,15.0928543 C20.7906978,14.3139525 21.0801822,12.4732924 21.1285708,11.8526129 L21.4711779,11.602248 C21.6453968,11.4750224 21.6834199,11.2306874 21.5561445,11.0565683 Z" id="Shape"></path>
                            <path d="M9.00615787,6.70762516 C8.84987918,6.55902087 8.60270369,6.56525009 8.45399973,6.72152878 L8.03310372,7.16415231 C7.94773848,7.25390293 7.91021365,7.37983286 7.93164217,7.50182592 C7.94584479,7.58275596 8.2632859,9.4945288 6.83026607,10.4810381 C6.65260868,10.6033301 6.60775829,10.8465189 6.73005036,11.0241763 C6.80584752,11.1341594 6.92799008,11.1932623 7.05217583,11.1932623 C7.12852117,11.1932623 7.20561401,11.1709368 7.27328826,11.124392 C8.83477955,10.0494278 8.79097566,8.1866914 8.72768678,7.56735733 L9.02011133,7.25983315 C9.16866579,7.10345478 9.1624864,6.85627929 9.00615787,6.70762516 Z" id="Shape"></path>
                            <path d="M25.4514508,23.8733649 C24.3881477,22.243103 23.1228683,21.3105138 21.7497985,20.8258805 L22.2866079,18.5505204 L23.012935,18.2546075 C23.1363733,18.2043253 23.2255757,18.0945415 23.2496953,17.9634288 L25.1822986,7.43400216 C25.3740091,6.38933689 24.792748,5.35688088 23.8001591,4.97904125 L22.5274046,4.49450753 C21.6767422,4.17068771 20.6996515,4.41088647 20.0961148,5.09226358 L17.8172664,7.66503151 C17.7077816,7.78782192 17.6881471,7.97385137 17.7690273,8.11702379 L18.7591744,9.86693655 C18.3644412,10.3111049 17.239992,11.4905705 15.0500969,13.1915465 C14.8535525,13.344287 14.6554633,13.4964794 14.4593674,13.6472763 C13.5414294,14.3530222 12.6743219,15.0195987 12.1501703,15.5785342 C11.8500713,15.8985168 11.7483606,16.3396952 11.8779783,16.7587972 C12.0076457,17.1778991 12.3408343,17.484626 12.7692054,17.5792603 C12.7715974,17.5797586 12.7739894,17.5803068 12.7763814,17.5807553 L14.2705473,17.8816516 L13.6450837,18.8095564 C13.5782566,18.9087256 13.5601171,19.0390907 13.5987881,19.1524625 L13.9559965,20.2132241 L13.6575919,21.1606139 C13.6170771,21.1697335 13.5765622,21.1788032 13.536147,21.1878231 C12.8350358,21.345248 12.1462833,21.4997825 11.4791088,21.6251144 C11.9989746,19.303409 11.1418837,17.3550582 10.9096583,16.8868699 L11.0629968,13.9506145 L11.7248391,13.5297185 C11.8373139,13.4581572 11.9055363,13.3342206 11.9057855,13.201015 L11.9273137,2.49572493 C11.9294565,1.43366767 11.1731793,0.521560215 10.1290123,0.327009185 L8.79022816,0.0775413429 C7.89556252,-0.0892024446 6.97687701,0.321627138 6.50470206,1.09978142 L4.72239735,4.03733254 C4.63603543,4.17796344 4.64959022,4.36479023 4.75503847,4.491667 L6.04164669,6.03666331 C5.73252783,6.54422024 4.83671601,7.90542961 2.98569054,9.97014228 C2.81949492,10.1555737 2.65175446,10.340756 2.48565851,10.5242439 C1.7085009,11.3824811 0.974499332,12.1930772 0.558586705,12.8366304 C0.320480962,13.2050515 0.299152109,13.6573428 0.50152704,14.0464448 C0.703951806,14.4356964 1.08652564,14.6779383 1.52496313,14.6946326 C1.52740499,14.6947323 1.52984684,14.6947822 1.5322887,14.694832 L3.05620532,14.7241342 L2.60645556,15.7488162 C2.55816664,15.858301 2.56399719,15.9898123 2.62220303,16.094513 L3.16304892,17.0743944 L2.94118898,18.8315829 C2.92489334,18.960453 2.97378027,19.0890241 3.07155412,19.1745389 C3.14356391,19.2374789 3.23520821,19.2710669 3.32864653,19.2710669 C3.36208499,19.2710669 3.39577261,19.2667314 3.4288124,19.2580104 L4.58326147,18.9514331 C4.83472266,19.7487236 4.87369267,20.7257146 4.84194856,21.47955 C3.52907794,21.5478721 2.53479461,21.9276552 1.8466401,22.3150629 C0.639765913,22.9944467 0.085464912,23.8392287 0.0624417112,23.8748599 C-0.0151494654,23.9950091 -0.020830515,24.1478991 0.0475414146,24.27353 C0.115913344,24.3991111 0.247474492,24.4773003 0.390497405,24.4773003 L25.1243419,24.4773003 C25.2676639,24.4773003 25.3994742,24.3987623 25.4677464,24.2727825 C25.5360187,24.1467529 25.5297396,23.9934642 25.4514508,23.8733649 Z M22.5200791,17.6120011 L21.9225722,17.855439 L21.6270579,17.7832299 L22.4864413,13.0476765 L23.1710576,14.065282 L22.5200791,17.6120011 Z M12.9347033,16.8159565 C12.7197703,16.7670696 12.6459166,16.5984321 12.6240894,16.5279671 C12.6022124,16.4572032 12.5676776,16.2751106 12.7198201,16.1128519 C13.2005166,15.6002119 14.0432056,14.9523729 14.9352799,14.2665107 C15.1324721,14.1149164 15.3315082,13.9618769 15.5290991,13.8084388 C17.7925987,12.0503034 18.9398218,10.8444757 19.3553856,10.3730483 L19.7749361,10.5265363 C19.8192383,10.5427323 19.8645372,10.5504067 19.9091385,10.5504067 C20.0684072,10.5504067 20.2180082,10.4522342 20.275915,10.2939621 C20.3500178,10.0913878 20.2458652,9.86713588 20.0433408,9.79298324 L19.5027939,9.59519301 L18.8848054,8.50288665 L20.237842,8.81255369 C20.2436227,8.81384936 20.2494034,8.81504537 20.255234,8.81609188 C20.5507482,8.86971302 20.8037543,9.06386538 20.9320264,9.33540958 L21.2159792,9.93650449 C21.2826069,10.0776337 21.4229388,10.1603079 21.5693504,10.1603079 C21.6252141,10.1603079 21.6820246,10.148298 21.7359447,10.1227831 C21.9309443,10.0306903 22.014366,9.79791678 21.9222732,9.60286741 L21.6383204,9.0017725 C21.404002,8.50567734 20.9429898,8.15021308 20.4040874,8.0492997 L18.8379118,7.6908454 L20.6809639,5.61008626 C21.0704148,5.17045276 21.7007621,5.01541991 22.2497309,5.22437289 L23.5224853,5.70890662 C24.1628991,5.95269341 24.5379978,6.61892106 24.4142606,7.29292277 L23.9163216,10.0058731 L23.8744114,9.93680349 C23.8179995,9.84396318 23.7255579,9.77878061 23.619113,9.75690359 L23.1124531,9.65290051 C22.9014071,9.60974447 22.6947963,9.74569099 22.651391,9.95698617 C22.6080357,10.1682813 22.7441815,10.374643 22.9554767,10.4180482 L23.2952433,10.4877656 L23.7042789,11.1614185 L23.3730837,12.9658494 L22.6866235,11.9455528 L22.7326699,11.6919986 C22.7711914,11.4797566 22.6303612,11.2765345 22.418169,11.238013 C22.2060267,11.1992922 22.0027049,11.3402719 21.9641834,11.5525139 L20.7931895,18.0053889 C20.7563125,18.208611 20.8840365,18.4054543 21.084717,18.4544908 L21.4839852,18.5520653 L20.9993518,20.606263 C18.9422637,20.1225765 16.6912724,20.4995689 14.5382045,20.9656143 L14.7395827,20.3263966 C14.7641508,20.2477091 14.7633036,20.1629917 14.7369415,20.0847028 L14.605181,19.6935576 L15.3110764,19.9672446 C15.3575214,19.9852845 15.4052123,19.9937562 15.4521558,19.9937562 C15.6086836,19.9937562 15.7563909,19.8989724 15.8163908,19.7442884 C15.8943806,19.5432091 15.7945636,19.3169638 15.5934843,19.2389739 L14.566211,18.8407025 L15.1104954,18.0332459 C15.1300303,18.0340433 15.149615,18.0350399 15.1690501,18.0350399 C15.6848296,18.0350399 16.171855,17.755024 16.4241634,17.2862378 C16.8436142,16.5069871 17.3138955,15.9601612 17.7484459,15.7463743 C17.9420003,15.651142 18.0217343,15.4170728 17.926502,15.2235184 C17.8313195,15.0300139 17.5972005,14.9502799 17.4036461,15.0454624 C16.6612226,15.4106941 16.0871875,16.2642468 15.7363577,16.9160227 C15.5975209,17.1738626 15.3005116,17.3052244 15.0144159,17.2351581 C15.0113262,17.2344106 15.0083362,17.2340618 15.0052465,17.2333641 C15.0030538,17.2329156 15.0009608,17.2320684 14.9987681,17.2316698 L12.9347033,16.8159565 Z M11.1251395,12.9856334 L10.5807056,13.3318784 L10.2770685,13.3135396 L10.2770685,8.50069397 L11.1323654,9.3797118 L11.1251395,12.9856334 Z M9.10223738,18.6474471 C8.97351676,18.4744243 8.72888279,18.4384941 8.55581011,18.5671649 C8.38273744,18.6958855 8.34680729,18.9405195 8.47552791,19.1135922 C8.48115913,19.1211171 8.97610811,19.8551187 8.89413156,21.906725 C8.41567756,21.9033363 7.95984808,21.8571903 7.53202519,21.753536 C6.84217634,21.5864434 6.20649679,21.5010283 5.62359121,21.4763606 C5.65458781,20.7270601 5.62588356,19.6762653 5.33958857,18.7504535 L10.2996432,17.4331975 C10.5790113,18.0844252 11.1763686,19.8215805 10.6350742,21.7678383 C10.3086631,21.8159778 9.98878011,21.8536022 9.67667122,21.8775723 C9.75695342,19.6063485 9.17604119,18.746716 9.10223738,18.6474471 Z M3.78881154,18.3541256 L3.95396065,17.0458895 C3.96432607,16.9638631 3.94837927,16.8806905 3.90846242,16.8082322 L3.70902768,16.4468876 L4.45244783,16.5901597 C4.47741455,16.5949437 4.5022816,16.5972859 4.52674998,16.5972859 C4.71018808,16.5972859 4.87379234,16.4673693 4.90977232,16.2805425 C4.95058617,16.068749 4.81199846,15.863982 4.60015512,15.8231682 L3.51831385,15.6147135 L3.90985776,14.7226891 C4.44223191,14.6483869 4.89816105,14.2786702 5.0688417,13.7534721 C5.34237926,12.9118296 5.70751127,12.2898543 6.0968625,12.0019148 C6.27033385,11.8736925 6.30691184,11.6291582 6.17863972,11.4557367 C6.0505171,11.2822654 5.80588313,11.2456874 5.63246162,11.3739097 C4.96713098,11.8658188 4.55480639,12.8081754 4.32601956,13.5121272 C4.23552144,13.7905983 3.9680636,13.9731892 3.67269886,13.9550497 C3.66955934,13.9548504 3.66651948,13.9550497 3.66337995,13.95495 C3.66113743,13.9548504 3.65894474,13.9544517 3.65670222,13.9544517 L1.55157436,13.9139867 C1.33130911,13.9042691 1.22855188,13.7515286 1.19456525,13.686047 C1.16042912,13.6203163 1.09390104,13.4473433 1.21464826,13.2605165 C1.59612575,12.6703352 2.30944631,11.8825131 3.06467706,11.0484952 C3.23167002,10.8640604 3.40025765,10.6778815 3.56730044,10.491553 C5.48051846,8.35757139 6.39397143,6.96626242 6.71868826,6.42815739 L7.15886993,6.50430339 C7.18139479,6.50819042 7.20381999,6.51008411 7.22589635,6.51008411 C7.41242414,6.51008411 7.57737391,6.37603127 7.61021437,6.18606495 C7.64699169,5.97352393 7.50451695,5.771448 7.29197593,5.73472051 L6.72481781,5.63659782 L5.92174664,4.67216491 L7.3083214,4.73525446 C7.31420179,4.73550363 7.320132,4.73565313 7.32606222,4.73565313 C7.62641034,4.73565313 7.91001432,4.88151657 8.08463184,5.12575187 L8.47134188,5.66649808 C8.54758754,5.77309251 8.66753742,5.82990301 8.78933115,5.82990301 C8.86796884,5.82990301 8.94735403,5.80623197 9.01617446,5.75699621 C9.19158933,5.63151478 9.23210418,5.38762832 9.10667258,5.21216362 L8.71996255,4.67141741 C8.4008271,4.22515601 7.88380175,3.95769818 7.33548081,3.95460849 L5.73043481,3.88155218 L7.17232505,1.50512929 C7.47700871,1.00300425 8.06958204,0.737888602 8.64695608,0.84552954 L9.98574025,1.09499738 C10.659443,1.22052864 11.1474152,1.80906544 11.1460199,2.49432959 L11.1404883,5.25257881 L11.086917,5.19213045 C11.0148574,5.11080174 10.9121998,5.06321049 10.8036121,5.06076863 L10.286487,5.0489082 C10.0722018,5.04317731 9.8921026,5.21475498 9.88711922,5.43038569 C9.88218568,5.6460164 10.052966,5.82481996 10.2685967,5.82975351 L10.6153899,5.83767708 L11.1381461,6.42750955 L11.1344584,8.26208989 L10.276919,7.3807797 L10.276919,7.12308929 C10.276919,6.90740874 10.1020523,6.73254205 9.88637172,6.73254205 C9.67069117,6.73254205 9.49582448,6.90740874 9.49582448,7.12308929 L9.49582448,13.6813626 C9.49582448,13.8879236 9.65668788,14.0587538 9.86285018,14.0711624 L10.2731316,14.0958799 L10.1388296,16.6678007 L3.78881154,18.3541256 Z M1.26248868,23.6960065 C2.1254102,22.9075864 4.05641888,21.7152139 7.34808875,22.5126538 C9.20125708,22.9615564 11.390006,22.4702453 13.7072264,21.9500804 C17.5974496,21.0767436 21.613254,20.1750016 24.3664202,23.6960065 L1.26248868,23.6960065 Z" id="Shape" opacity="0.6"></path>
                        </g>
                    </g>
                </g>
            </g>
        </g>
    </g>
</svg>