<?xml version="1.0" encoding="UTF-8"?>
<svg width="25px" height="26px" viewBox="0 0 25 26" version="1.1" xmlns="http://www.w3.org/2000/svg" xmlns:xlink="http://www.w3.org/1999/xlink">
    <!-- Generator: Sketch 46.2 (44496) - http://www.bohemiancoding.com/sketch -->
    <title>018-arc-de-triomphe</title>
    <desc>Created with Sketch.</desc>
    <defs></defs>
    <g id="Welcome" stroke="none" stroke-width="1" fill="none" fill-rule="evenodd" opacity="0.597203351">
        <g id="main" transform="translate(-1276.000000, -975.000000)" fill-rule="nonzero" fill="#000000">
            <g id="Group-9" transform="translate(1267.000000, 556.000000)">
                <g id="Group-12">
                    <g id="018-arc-de-triomphe" transform="translate(8.982898, 419.706207)">
                        <path d="M23.8322742,4.41221296 L23.5145635,4.41221296 L23.4086115,4.41221296 L22.944902,4.41221296 L22.944902,2.99459658 L23.5145635,2.99459658 C23.7241915,2.99459658 23.8940634,2.82467631 23.8940634,2.61509668 L23.8940634,1.58104782 C23.8940634,1.37146819 23.7241915,1.20154792 23.5145635,1.20154792 L22.944902,1.20154792 L22.944902,0.379499901 C22.944902,0.16992027 22.7750302,0 22.5654021,0 L1.64666252,0 C1.43708288,0 1.26716261,0.16992027 1.26716261,0.379499901 L1.26716261,1.20159634 L0.697549582,1.20159634 C0.48796995,1.20159634 0.318049681,1.37151661 0.318049681,1.58109624 L0.318049681,2.61519352 C0.318049681,2.82477316 0.48796995,2.99469343 0.697549582,2.99469343 L1.26716261,2.99469343 L1.26716261,4.41226139 L0.803453153,4.41226139 L0.697549582,4.41226139 L0.37983887,4.41226139 C0.170259238,4.41226139 0.000338968905,4.58218165 0.000338968905,4.79176129 C0.000338968905,4.980228 0.13791192,5.13625054 0.318049681,5.16578926 L0.318049681,6.300754 C0.318049681,6.51033363 0.48796995,6.6802539 0.697549582,6.6802539 L1.26716261,6.6802539 L1.26716261,8.04537853 L1.02678524,8.04537853 C0.817205605,8.04537853 0.647285336,8.2152988 0.647285336,8.42487843 C0.647285336,8.63445806 0.817205605,8.80437833 1.02678524,8.80437833 L1.26716261,8.80437833 L1.26716261,9.65228484 C1.26716261,9.86186447 1.43708288,10.0317847 1.64666252,10.0317847 C1.85624215,10.0317847 2.02616242,9.86186447 2.02616242,9.65228484 L2.02616242,8.80437833 L6.97651273,8.80437833 L6.97651273,12.7498795 L2.02616242,12.7498795 L2.02616242,11.1481062 C2.02616242,10.9385266 1.85624215,10.7686063 1.64666252,10.7686063 C1.43708288,10.7686063 1.26716261,10.9385266 1.26716261,11.1481062 L1.26716261,12.7498795 L1.13995243,12.7498795 C0.930372795,12.7498795 0.760452526,12.9197998 0.760452526,13.1293794 C0.760452526,13.3389591 0.930372795,13.5088793 1.13995243,13.5088793 L1.26716261,13.5088793 L1.26716261,21.0180575 L1.13995243,21.0180575 C0.930372795,21.0180575 0.760452526,21.1879778 0.760452526,21.3975574 C0.760452526,21.607137 0.930372795,21.7770573 1.13995243,21.7770573 L1.26716261,21.7770573 L1.26716261,22.9706152 L1.03400043,22.9706152 C0.824420801,22.9706152 0.654500531,23.1405355 0.654500531,23.3501151 L0.654500531,24.413848 C0.654500531,24.6234276 0.824420801,24.7933479 1.03400043,24.7933479 L9.05206775,24.7933479 C9.26164738,24.7933479 9.43156765,24.6234276 9.43156765,24.413848 L9.43156765,23.3501151 C9.43156765,23.1405355 9.26164738,22.9706152 9.05206775,22.9706152 L8.79541987,22.9706152 L8.79541987,13.5400161 C8.79541987,13.4173093 8.80239294,13.2933435 8.81619382,13.1707336 C9.00141611,11.4939513 10.4157397,10.229452 12.1059839,10.229452 C12.9900632,10.229452 13.8214087,10.573796 14.4471453,11.1989031 C14.9770989,11.7288568 15.3139856,12.4291181 15.3958708,13.1716053 C15.4095748,13.2933435 15.4165479,13.4173093 15.4165479,13.5400161 L15.4165479,16.1165671 C15.4165479,16.3261468 15.5864198,16.496067 15.7960478,16.496067 C16.0056759,16.496067 16.1755477,16.3261468 16.1755477,16.1165671 L16.1755477,13.5400161 C16.1755477,13.5296533 16.1752087,13.5191937 16.1751119,13.5087825 L16.4765037,13.5087825 L16.4765037,22.9705184 L16.1754993,22.9705184 L16.1754993,17.6547596 C16.1754993,17.44518 16.0056274,17.2752597 15.7959994,17.2752597 C15.5863713,17.2752597 15.4164995,17.44518 15.4164995,17.6547596 L15.4164995,22.9704215 L15.1599484,22.9704215 C14.9503204,22.9704215 14.7804485,23.1403418 14.7804485,23.3499214 L14.7804485,24.4136543 C14.7804485,24.6232339 14.9503204,24.7931542 15.1599484,24.7931542 L23.1780158,24.7931542 C23.3876438,24.7931542 23.5575157,24.6232339 23.5575157,24.4136543 L23.5575157,23.3499214 C23.5575157,23.1403418 23.3876438,22.9704215 23.1780158,22.9704215 L22.9448536,22.9704215 L22.9448536,21.7768152 L23.0721122,21.7768152 C23.2817403,21.7768152 23.4516121,21.6068949 23.4516121,21.3973153 C23.4516121,21.1877356 23.2817403,21.0178154 23.0721122,21.0178154 L22.9448536,21.0178154 L22.9448536,13.5086856 L23.0721122,13.5086856 C23.2817403,13.5086856 23.4516121,13.3387654 23.4516121,13.1291857 C23.4516121,12.9196061 23.2817403,12.7496858 23.0721122,12.7496858 L22.9448536,12.7496858 L22.9448536,8.80418464 L23.1852794,8.80418464 C23.3949074,8.80418464 23.5647793,8.63426437 23.5647793,8.42468473 C23.5647793,8.2151051 23.3949074,8.04518483 23.1852794,8.04518483 L22.9448536,8.04518483 L22.9448536,6.68006021 L23.514515,6.68006021 C23.7241431,6.68006021 23.8940149,6.51013994 23.8940149,6.30056031 L23.8940149,5.16559556 C24.0741527,5.13610527 24.2117257,4.98008272 24.2117257,4.79161601 C24.2117257,4.58213323 24.0419022,4.41221296 23.8322742,4.41221296 Z M2.02616242,0.758999802 L22.1859506,0.758999802 L22.1859506,1.20159634 L2.02616242,1.20159634 L2.02616242,0.758999802 Z M1.07704948,2.2356452 L1.07704948,1.96054772 L23.1349667,1.96054772 L23.1349667,2.2356452 L18.0139214,2.2356452 C17.8042933,2.2356452 17.6344215,2.40556547 17.6344215,2.6151451 C17.6344215,2.79954418 17.7659414,2.95304867 17.9402198,2.98733296 L17.9402198,4.41221296 L16.6279259,4.41221296 L16.6279259,2.9878172 C16.8037539,2.95474352 16.9368234,2.80060952 16.9368234,2.6151451 C16.9368234,2.40556547 16.7669516,2.2356452 16.5573235,2.2356452 L1.07704948,2.2356452 Z M22.1859022,2.99459658 L22.1859022,4.41221296 L20.7704649,4.41221296 L20.7704649,2.99459658 L22.1859022,2.99459658 Z M20.011562,2.99459658 L20.011562,4.41221296 L18.6992681,4.41221296 L18.6992681,2.99459658 L20.011562,2.99459658 Z M15.869023,2.99459658 L15.869023,4.41221296 L14.5567291,4.41221296 L14.5567291,2.99459658 L15.869023,2.99459658 Z M13.7978261,2.99459658 L13.7978261,4.41221296 L12.4855322,4.41221296 L12.4855322,2.99459658 L13.7978261,2.99459658 Z M11.7265808,2.99459658 L11.7265808,4.41221296 L10.4142869,4.41221296 L10.4142869,2.99459658 L11.7265808,2.99459658 Z M9.65533556,2.99459658 L9.65533556,4.41221296 L8.34304165,4.41221296 L8.34304165,2.99459658 L9.65533556,2.99459658 Z M7.58409028,2.99459658 L7.58409028,4.41221296 L6.27189322,4.41221296 L6.27189322,2.99459658 L7.58409028,2.99459658 Z M5.51289342,2.99459658 L5.51289342,4.41221296 L4.20059952,4.41221296 L4.20059952,2.99459658 L5.51289342,2.99459658 Z M3.44164814,2.99459658 L3.44164814,4.41221296 L2.02616242,4.41221296 L2.02616242,2.99459658 L3.44164814,2.99459658 Z M2.02616242,13.5086856 L6.97651273,13.5086856 L6.97651273,21.0178638 L6.28884167,21.0178638 L6.28884167,20.1793031 C6.28884167,19.9697235 6.1189214,19.7998032 5.90934177,19.7998032 L5.84614828,19.7998032 C5.97907251,19.5558909 6.05718063,19.2675252 6.05897232,18.958434 L6.05902075,17.5615916 C6.05902075,17.0174012 5.76281035,16.5480261 5.32704161,16.3822703 C5.3039433,16.0827671 5.08065964,15.8444235 4.80294726,15.8235527 L4.80294726,15.7264139 C4.80294726,15.5168343 4.63302699,15.346914 4.42344736,15.346914 C4.21386773,15.346914 4.04394746,15.5168343 4.04394746,15.7264139 L4.04394746,15.8235527 C3.76623508,15.8443751 3.54290299,16.0827671 3.51990153,16.3822703 C3.08418122,16.5480261 2.78792239,17.0174012 2.78792239,17.5615916 L2.78792239,18.9429867 L2.78797082,18.9586277 C2.78976251,19.2675736 2.86787063,19.5559393 3.00079487,19.7998517 L2.9376498,19.7998517 C2.72807017,19.7998517 2.5581499,19.9697719 2.5581499,20.1793516 L2.5581499,21.0179122 L2.02616242,21.0179122 L2.02616242,13.5086856 Z M6.97651273,21.7768636 L6.97651273,22.9704215 L6.28884167,22.9704215 L6.28884167,21.7768636 L6.97651273,21.7768636 Z M3.3171497,20.7611675 L3.3171497,20.558803 L5.52984186,20.558803 L5.52984186,20.7611675 L3.3171497,20.7611675 Z M5.52984186,21.7768636 L5.52984186,22.9704215 L3.3171497,22.9704215 L3.3171497,21.7768636 L5.52984186,21.7768636 Z M3.54697062,17.5615916 C3.54697062,17.3066869 3.68149285,17.1188982 3.81151164,17.0847107 C4.04123571,17.024229 4.21285082,16.8262712 4.26238871,16.5805671 L4.58465129,16.5805671 C4.63418917,16.8263196 4.80580428,17.0242774 5.03552835,17.0847107 C5.16554714,17.118995 5.30006937,17.3067838 5.30006937,17.5615916 L5.30006937,18.9429867 L5.30002095,18.9542211 C5.29745447,19.4028707 5.02100111,19.7819347 4.69641418,19.7819347 L4.15062581,19.7819347 C3.82599045,19.7819347 3.54963395,19.4029191 3.54701904,18.9542695 L3.54697062,17.5615916 Z M2.02616242,21.7768636 L2.55819832,21.7768636 L2.55819832,22.9704215 L2.02616242,22.9704215 L2.02616242,21.7768636 Z M1.41350033,24.0341544 L1.41350033,23.7293729 L8.67256785,23.7293729 L8.67256785,24.0341544 L1.41350033,24.0341544 Z M7.73551253,22.9704215 L7.73551253,13.5086856 L8.03690431,13.5086856 C8.03680746,13.5190484 8.03646849,13.529508 8.03646849,13.5399192 L8.03646849,22.97047 L7.73551253,22.97047 L7.73551253,22.9704215 Z M11.7266293,9.48793334 C9.93237,9.65349544 8.45964696,10.9816725 8.11418922,12.7497343 L7.75570539,12.7497343 C7.85642758,11.8474475 8.43877616,9.58119821 11.7266293,9.08359186 L11.7266293,9.48793334 L11.7266293,9.48793334 Z M7.73556095,10.6057559 L7.73556095,8.80423306 L9.9155184,8.80423306 C8.82161732,9.27520614 8.14813453,9.96505629 7.73556095,10.6057559 Z M7.35891807,8.04523326 C7.35790117,8.04523326 7.35698111,8.04508799 7.3559642,8.04508799 C7.3549473,8.04508799 7.35402724,8.04523326 7.35301033,8.04523326 L2.02616242,8.04523326 L2.02616242,6.68010863 L22.1859506,6.68010863 L22.1859506,8.04523326 L16.8590059,8.04523326 C16.857989,8.04523326 16.8570205,8.04508799 16.856052,8.04508799 C16.8550835,8.04508799 16.854115,8.04523326 16.8530981,8.04523326 L7.35891807,8.04523326 Z M21.6539147,21.0178638 L21.6539147,20.1793031 C21.6539147,19.9697235 21.4840429,19.7998032 21.2744148,19.7998032 L21.2115119,19.7998032 C21.3442424,19.5563267 21.4222053,19.268639 21.4240454,18.9606131 L21.4240938,17.5615916 C21.4240938,17.0174496 21.127835,16.548123 20.6921147,16.3822703 C20.6691132,16.0827671 20.4457811,15.8444235 20.1680687,15.8235527 L20.1680687,15.7264139 C20.1680687,15.5168343 19.9981969,15.346914 19.7885688,15.346914 C19.5789408,15.346914 19.4090689,15.5168343 19.4090689,15.7264139 L19.4090689,15.8235527 C19.1312597,15.8443751 18.9080245,16.0827671 18.885023,16.3822703 C18.4493511,16.5480745 18.1530439,17.0174496 18.1530439,17.5615916 L18.1530439,18.9586277 C18.154884,19.2675736 18.2329437,19.5558909 18.3658679,19.7998032 L18.3027229,19.7998032 C18.0930948,19.7998032 17.923223,19.9697235 17.923223,20.1793031 L17.923223,21.0178638 L17.2355035,21.0178638 L17.2355035,13.5086856 L22.1858538,13.5086856 L22.1858538,21.0178638 L21.6539147,21.0178638 L21.6539147,21.0178638 Z M22.1859022,21.7768636 L22.1859022,22.9704215 L21.6539147,22.9704215 L21.6539147,21.7768636 L22.1859022,21.7768636 Z M18.6822712,20.7611675 L18.6822712,20.558803 L20.8949633,20.558803 L20.8949633,20.7611675 L18.6822712,20.7611675 Z M20.8949633,21.7768636 L20.8949633,22.9704215 L18.6822712,22.9704215 L18.6822712,21.7768636 L20.8949633,21.7768636 Z M18.9120437,18.9564486 L18.9120437,17.56164 C18.9120437,17.3067354 19.0465659,17.1189466 19.1765847,17.0847592 C19.4063088,17.024229 19.5779723,16.8262712 19.6274618,16.5805671 L19.9497243,16.5805671 C19.9992622,16.8263196 20.1708773,17.0242774 20.4006014,17.0847107 C20.5305718,17.118995 20.6651424,17.3067838 20.6651424,17.5615916 L20.6651424,18.9429867 L20.665094,18.9542695 C20.6625275,19.4029191 20.3860742,19.7819347 20.0614388,19.7819347 L19.5156989,19.7819347 C19.1910635,19.7818863 18.9146586,19.4028707 18.9120437,18.9564486 Z M17.9232714,21.7768636 L17.9232714,22.9704215 L17.2355519,22.9704215 L17.2355519,21.7768636 L17.9232714,21.7768636 Z M17.2355519,12.7496858 L17.2355519,8.80418464 L22.1859022,8.80418464 L22.1859022,12.7496858 L17.2355519,12.7496858 Z M16.0983112,12.7496858 C15.9428698,11.9639559 15.5543146,11.2326063 14.983733,10.6619764 C14.304972,9.98369958 13.4289795,9.57490308 12.4855806,9.48817546 L12.4855806,9.08354344 C15.7734337,9.58110137 16.3557823,11.847399 16.4565045,12.7496858 L16.0983112,12.7496858 Z M14.2966431,8.80423306 L16.4766005,8.80423306 L16.4766005,10.6057559 C16.0639301,9.96510471 15.3904957,9.27520614 14.2966431,8.80423306 Z M22.7985643,24.0341544 L15.5394968,24.0341544 L15.5394968,23.7293729 L22.7985643,23.7293729 L22.7985643,24.0341544 Z M23.135112,5.92115725 L23.1350636,5.92115725 L22.5654021,5.92115725 L1.64666252,5.92115725 L1.07704948,5.92115725 L1.07704948,5.17116434 L1.78462286,5.17116434 L1.78462286,5.39527121 C1.78462286,5.60485084 1.95454313,5.77477111 2.16412276,5.77477111 C2.37370239,5.77477111 2.54362266,5.60485084 2.54362266,5.39527121 L2.54362266,5.17116434 L3.44164814,5.17116434 L3.44164814,5.39527121 C3.44164814,5.60485084 3.61156841,5.77477111 3.82114804,5.77477111 C4.03072767,5.77477111 4.20064794,5.60485084 4.20064794,5.39527121 L4.20064794,5.17116434 L5.09867342,5.17116434 L5.09867342,5.39527121 C5.09867342,5.60485084 5.26859369,5.77477111 5.47817332,5.77477111 C5.68775295,5.77477111 5.85767322,5.60485084 5.85767322,5.39527121 L5.85767322,5.17116434 L6.7556987,5.17116434 L6.7556987,5.39527121 C6.7556987,5.60485084 6.92561897,5.77477111 7.1351986,5.77477111 C7.34477823,5.77477111 7.5146985,5.60485084 7.5146985,5.39527121 L7.5146985,5.17116434 L8.41272397,5.17116434 L8.41272397,5.39527121 C8.41272397,5.60485084 8.58264424,5.77477111 8.79222388,5.77477111 C9.00180351,5.77477111 9.17172378,5.60485084 9.17172378,5.39527121 L9.17172378,5.17116434 L10.0697493,5.17116434 L10.0697493,5.39527121 C10.0697493,5.60485084 10.2396695,5.77477111 10.4492492,5.77477111 C10.6588288,5.77477111 10.8287491,5.60485084 10.8287491,5.39527121 L10.8287491,5.17116434 L11.7267745,5.17116434 L11.7267745,5.39527121 C11.7267745,5.60485084 11.8966948,5.77477111 12.1062744,5.77477111 C12.3159025,5.77477111 12.4857743,5.60485084 12.4857743,5.39527121 L12.4857743,5.17116434 L13.3837998,5.17116434 L13.3837998,5.39527121 C13.3837998,5.60485084 13.5536717,5.77477111 13.7632997,5.77477111 C13.9729278,5.77477111 14.1427996,5.60485084 14.1427996,5.39527121 L14.1427996,5.17116434 L15.0407767,5.17116434 L15.0407767,5.39527121 C15.0407767,5.60485084 15.2106485,5.77477111 15.4202766,5.77477111 C15.6299046,5.77477111 15.7997765,5.60485084 15.7997765,5.39527121 L15.7997765,5.17116434 L16.6978019,5.17116434 L16.6978019,5.39527121 C16.6978019,5.60485084 16.8676738,5.77477111 17.0773018,5.77477111 C17.2869299,5.77477111 17.4568017,5.60485084 17.4568017,5.39527121 L17.4568017,5.17116434 L18.3547788,5.17116434 L18.3547788,5.39527121 C18.3547788,5.60485084 18.5246506,5.77477111 18.7342787,5.77477111 C18.9439068,5.77477111 19.1137786,5.60485084 19.1137786,5.39527121 L19.1137786,5.17116434 L20.0118041,5.17116434 L20.0118041,5.39527121 C20.0118041,5.60485084 20.1816759,5.77477111 20.391304,5.77477111 C20.600932,5.77477111 20.7708039,5.60485084 20.7708039,5.39527121 L20.7708039,5.17116434 L21.6687809,5.17116434 L21.6687809,5.39527121 C21.6687809,5.60485084 21.8386528,5.77477111 22.0482808,5.77477111 C22.2579089,5.77477111 22.4277807,5.60485084 22.4277807,5.39527121 L22.4277807,5.17116434 L23.1353541,5.17116434 L23.1353541,5.92115725 L23.135112,5.92115725 Z" id="Shape"></path>
                        <path d="M2.72463206,3.32388066 L2.67552999,3.32388066 C2.46595036,3.32388066 2.29603009,3.49380093 2.29603009,3.70338056 C2.29603009,3.91296019 2.46595036,4.08288046 2.67552999,4.08288046 L2.72463206,4.08288046 C2.93421169,4.08288046 3.10413196,3.91296019 3.10413196,3.70338056 C3.10413196,3.49380093 2.93421169,3.32388066 2.72463206,3.32388066 Z" id="Shape"></path>
                        <path d="M4.88076484,3.32388066 L4.83161434,3.32388066 C4.62203471,3.32388066 4.45211444,3.49380093 4.45211444,3.70338056 C4.45211444,3.91296019 4.62203471,4.08288046 4.83161434,4.08288046 L4.88076484,4.08288046 C5.09034447,4.08288046 5.26026474,3.91296019 5.26026474,3.70338056 C5.26026474,3.49380093 5.09034447,3.32388066 4.88076484,3.32388066 Z" id="Shape"></path>
                        <path d="M6.94280953,3.32388066 L6.89370746,3.32388066 C6.68412783,3.32388066 6.51420756,3.49380093 6.51420756,3.70338056 C6.51420756,3.91296019 6.68412783,4.08288046 6.89370746,4.08288046 L6.94280953,4.08288046 C7.15238916,4.08288046 7.32230943,3.91296019 7.32230943,3.70338056 C7.32230943,3.49380093 7.15238916,3.32388066 6.94280953,3.32388066 Z" id="Shape"></path>
                        <path d="M9.0048058,3.32388066 L8.95570374,3.32388066 C8.7461241,3.32388066 8.57620384,3.49380093 8.57620384,3.70338056 C8.57620384,3.91296019 8.7461241,4.08288046 8.95570374,4.08288046 L9.0048058,4.08288046 C9.21438543,4.08288046 9.3843057,3.91296019 9.3843057,3.70338056 C9.3843057,3.49380093 9.21438543,3.32388066 9.0048058,3.32388066 Z" id="Shape"></path>
                        <path d="M11.0668505,3.32388066 L11.0177484,3.32388066 C10.8081688,3.32388066 10.6382485,3.49380093 10.6382485,3.70338056 C10.6382485,3.91296019 10.8081688,4.08288046 11.0177484,4.08288046 L11.0668505,4.08288046 C11.2764301,4.08288046 11.4463504,3.91296019 11.4463504,3.70338056 C11.4463504,3.49380093 11.2764301,3.32388066 11.0668505,3.32388066 Z" id="Shape"></path>
                        <path d="M13.1288952,3.32388066 L13.0797447,3.32388066 C12.8701166,3.32388066 12.7002448,3.49380093 12.7002448,3.70338056 C12.7002448,3.91296019 12.8701166,4.08288046 13.0797447,4.08288046 L13.1288952,4.08288046 C13.3385233,4.08288046 13.5083951,3.91296019 13.5083951,3.70338056 C13.5083951,3.49380093 13.3384748,3.32388066 13.1288952,3.32388066 Z" id="Shape"></path>
                        <path d="M15.2399935,3.32388066 L15.190843,3.32388066 C14.981215,3.32388066 14.8113431,3.49380093 14.8113431,3.70338056 C14.8113431,3.91296019 14.981215,4.08288046 15.190843,4.08288046 L15.2399935,4.08288046 C15.4496216,4.08288046 15.6194934,3.91296019 15.6194934,3.70338056 C15.6194934,3.49380093 15.4496216,3.32388066 15.2399935,3.32388066 Z" id="Shape"></path>
                        <path d="M17.3020867,3.32388066 L17.2529362,3.32388066 C17.0433081,3.32388066 16.8734363,3.49380093 16.8734363,3.70338056 C16.8734363,3.91296019 17.0433081,4.08288046 17.2529362,4.08288046 L17.3020867,4.08288046 C17.5117147,4.08288046 17.6815866,3.91296019 17.6815866,3.70338056 C17.6815866,3.49380093 17.5117147,3.32388066 17.3020867,3.32388066 Z" id="Shape"></path>
                        <path d="M19.3640345,3.32388066 L19.3149324,3.32388066 C19.1053044,3.32388066 18.9354325,3.49380093 18.9354325,3.70338056 C18.9354325,3.91296019 19.1053044,4.08288046 19.3149324,4.08288046 L19.3640345,4.08288046 C19.5736626,4.08288046 19.7435344,3.91296019 19.7435344,3.70338056 C19.7435344,3.49380093 19.5736626,3.32388066 19.3640345,3.32388066 Z" id="Shape"></path>
                        <path d="M21.5242833,3.32388066 L21.4751328,3.32388066 C21.2655048,3.32388066 21.0956329,3.49380093 21.0956329,3.70338056 C21.0956329,3.91296019 21.2655048,4.08288046 21.4751328,4.08288046 L21.5242833,4.08288046 C21.7339114,4.08288046 21.9037832,3.91296019 21.9037832,3.70338056 C21.9037832,3.49380093 21.7339114,3.32388066 21.5242833,3.32388066 Z" id="Shape"></path>
                        <path d="M21.3974605,9.59998678 L18.179774,9.59998678 C17.9701459,9.59998678 17.8002741,9.76990705 17.8002741,9.97948668 L17.8002741,11.6242122 C17.8002741,11.8337919 17.9701459,12.0037121 18.179774,12.0037121 L21.3974605,12.0037121 C21.6070886,12.0037121 21.7769604,11.8337919 21.7769604,11.6242122 L21.7769604,9.97948668 C21.776912,9.76990705 21.6070886,9.59998678 21.3974605,9.59998678 Z M21.0179606,11.2447123 L18.5592739,11.2447123 L18.5592739,10.3589866 L21.0179606,10.3589866 L21.0179606,11.2447123 Z" id="Shape"></path>
                        <path d="M6.03233905,9.59998678 L2.81465251,9.59998678 C2.60507288,9.59998678 2.43515261,9.76990705 2.43515261,9.97948668 L2.43515261,11.6242122 C2.43515261,11.8337919 2.60507288,12.0037121 2.81465251,12.0037121 L6.03233905,12.0037121 C6.24191868,12.0037121 6.41183895,11.8337919 6.41183895,11.6242122 L6.41183895,9.97948668 C6.41183895,9.76990705 6.24191868,9.59998678 6.03233905,9.59998678 Z M5.65283915,11.2447123 L3.19415241,11.2447123 L3.19415241,10.3589866 L5.65283915,10.3589866 L5.65283915,11.2447123 Z" id="Shape"></path>
                    </g>
                </g>
            </g>
        </g>
    </g>
</svg>