<?xml version="1.0" encoding="UTF-8"?>
<svg width="19px" height="32px" viewBox="0 0 19 32" version="1.1" xmlns="http://www.w3.org/2000/svg" xmlns:xlink="http://www.w3.org/1999/xlink">
    <!-- Generator: Sketch 46.2 (44496) - http://www.bohemiancoding.com/sketch -->
    <title>Shape</title>
    <desc>Created with Sketch.</desc>
    <defs></defs>
    <g id="Welcome" stroke="none" stroke-width="1" fill="none" fill-rule="evenodd" opacity="0.6">
        <g id="main" transform="translate(-1279.000000, -1068.000000)" fill-rule="nonzero" fill="#000000">
            <g id="Group-9" transform="translate(1267.000000, 556.000000)">
                <g id="Group-12">
                    <g id="027-leaning-tower-of-pisa" transform="translate(11.982898, 512.000000)">
                        <path d="M18.2012289,30.146201 L15.5019453,30.146201 L15.8138987,26.9011205 L16.3429318,26.9519587 C16.3581772,26.9534164 16.3733011,26.9541452 16.3884857,26.9541452 C16.4984833,26.9541452 16.6056869,26.9160014 16.6912676,26.8454232 C16.7886923,26.765066 16.8501597,26.649359 16.8622467,26.5236909 L17.0276986,24.8029667 C17.0528444,24.5413049 16.8610927,24.3087368 16.5994308,24.283591 L16.070337,24.2327528 L16.4556626,20.2245527 L16.9847564,20.2753909 C17.0002448,20.2768486 17.0156116,20.2776382 17.0309178,20.2776382 C17.2732647,20.2776382 17.4805048,20.0933573 17.5041928,19.8471231 L17.6696447,18.1263989 C17.681671,18.0007308 17.6433449,17.8753663 17.5631093,17.7780631 C17.4827521,17.6806384 17.3670451,17.619171 17.241377,17.607084 L16.7122831,17.5561851 L17.0976087,13.5479849 L17.6267026,13.5988839 C17.6419479,13.6003416 17.6570719,13.6010704 17.6722565,13.6010704 C17.7822541,13.6010704 17.8894577,13.5629266 17.9750384,13.4923484 C18.0724631,13.4119912 18.1339305,13.2962842 18.1460175,13.1706161 L18.3114694,11.4498919 C18.3366152,11.1882301 18.1448635,10.955662 17.8832016,10.9305162 L15.826836,10.7328121 L15.9874896,9.06213653 C15.9875503,9.06152915 15.9876718,9.06092176 15.9877325,9.06031438 C15.9877932,9.05976773 15.9877325,9.05916034 15.9877932,9.05855296 L16.2648827,6.17632476 L16.7156845,6.21969211 C16.7311728,6.22114984 16.7465397,6.22193944 16.7618458,6.22193944 C17.0041928,6.22193944 17.2114328,6.03765856 17.2351209,5.79142433 L17.4005728,4.07076088 L17.5004878,3.03182734 C17.5256335,2.7701655 17.3338818,2.53759745 17.07222,2.51251242 C16.8104367,2.48688073 16.5779901,2.67911836 16.5528443,2.9407802 L16.498544,3.50589202 L15.7113112,3.43021174 L15.7656115,2.86509992 C15.7907573,2.60343808 15.5990056,2.37087003 15.3373437,2.34578499 C15.0757426,2.320457 14.8431138,2.51239094 14.8179681,2.77405277 L14.7636678,3.33916459 L13.9764349,3.26348431 L14.0306137,2.69819028 C14.0557595,2.43652844 13.8640078,2.20396039 13.602346,2.17887535 C13.3409271,2.15330441 13.1081161,2.3454813 13.0829703,2.60714314 L13.02867,3.17225495 L12.1948507,3.09208002 L12.4419352,0.521683729 C12.467081,0.260021894 12.2753293,0.0274538416 12.0136675,0.00236880492 C11.7523093,-0.0232021405 11.5194376,0.168974751 11.4943525,0.430636586 L11.2472072,3.00103288 L10.5234462,2.93148719 L10.5777465,2.36637537 C10.6028923,2.10471354 10.4111406,1.87214549 10.1494787,1.84706045 C9.88775616,1.8214895 9.65524884,2.0136664 9.63010307,2.27532823 L9.57580277,2.84044005 L8.78856994,2.76475977 L8.84287023,2.19964795 C8.86801601,1.93798612 8.67626429,1.70541806 8.41460245,1.68033303 C8.15306209,1.65500504 7.92037256,1.84693897 7.89522679,2.10860081 L7.84092649,2.67371263 L7.05369366,2.59809309 L7.10799396,2.03298127 C7.13313973,1.77131943 6.94138801,1.53875138 6.67972617,1.51366634 C6.41836803,1.4880954 6.18549629,1.68027229 6.16035051,1.94193412 L6.06043553,2.98086766 L5.89504436,4.70159185 C5.86989859,4.96325369 6.06165031,5.19582174 6.32331214,5.22090678 L6.77399246,5.26427413 L6.49684229,8.14765636 C6.49684229,8.14783858 6.49678155,8.14802079 6.49678155,8.14826375 C6.49678155,8.1485067 6.49678155,8.14868892 6.49678155,8.14887113 L6.33606725,9.82076149 L4.2798231,9.62305739 C4.01828274,9.59815457 3.78559321,9.78966334 3.76050818,10.0513252 L3.59505626,11.7719886 C3.56991049,12.0336505 3.76166221,12.2662185 4.02332404,12.2913035 L4.55272157,12.3422025 L4.46647278,13.2398581 L4.46647278,13.2399188 L4.16739597,16.3504634 L3.63799844,16.2995644 C3.37639735,16.2745401 3.14376856,16.4661704 3.11868352,16.7278322 L2.95323161,18.4484957 C2.92808583,18.7101575 3.11983755,18.9427255 3.38149939,18.9678106 L3.91107913,19.0187095 L3.82495182,19.9143607 C3.82489108,19.9150288 3.82464812,19.9157577 3.82458739,19.9164258 L3.52551058,23.0269704 L2.99617379,22.9760714 C2.73445121,22.9509257 2.5019439,23.1426774 2.47685886,23.4043392 L2.31140695,25.1250027 C2.28626118,25.3866645 2.4780129,25.6192326 2.73967473,25.6443176 L3.26876857,25.6952165 L2.84129039,30.1463225 L0.506559821,30.1463225 C0.243683214,30.1463225 0.0305515096,30.3594542 0.0305515096,30.6223308 C0.0305515096,30.8852074 0.243683214,31.0983391 0.506559821,31.0983391 L18.2013503,31.0983391 C18.4642269,31.0983391 18.6773586,30.8852074 18.6773586,30.6223308 C18.6773586,30.3594542 18.4641662,30.146201 18.2012289,30.146201 Z M6.96258578,3.5453721 L8.22321516,3.66660632 C8.22333664,3.66660632 8.22345812,3.66666706 8.22364033,3.66666706 C8.22376181,3.66666706 8.22394403,3.66666706 8.2240655,3.66666706 L9.95815218,3.83339448 C9.95827366,3.83339448 9.9583344,3.83345522 9.95845587,3.83345522 C9.95857735,3.83345522 9.95869883,3.83345522 9.95875957,3.83345522 L13.4109587,4.1653916 C13.4110801,4.1653916 13.4111409,4.16545234 13.4112624,4.16545234 C13.4113838,4.16545234 13.4114446,4.16545234 13.4115661,4.16545234 L15.1459564,4.33217976 C15.1460172,4.33217976 15.1460779,4.33217976 15.1461386,4.33217976 C15.1461994,4.33217976 15.1462601,4.33217976 15.1463209,4.33217976 L16.4071932,4.45341398 L16.3328492,5.22655546 L6.88824175,4.31851358 L6.96258578,3.5453721 Z M14.6673364,8.45523657 L14.7101571,8.00990124 C14.7917897,7.16083653 14.167397,6.40373003 13.3183323,6.32203663 C12.9069499,6.28261729 12.5049819,6.40549145 12.1861651,6.66836806 C11.8673482,6.93124467 11.6700693,7.30253965 11.6305285,7.71386137 L11.5877077,8.15925743 L10.9879142,8.10155577 L11.0307349,7.65615971 C11.0702757,7.24489873 10.9472801,6.84280928 10.6844035,6.52399244 C10.4215269,6.20517559 10.0502319,6.00789666 9.63891016,5.96835584 C8.78984545,5.88714834 8.03273895,6.51111585 7.95110629,7.36011983 L7.90828559,7.8055159 L7.48985746,7.76530695 L7.72157517,5.35513905 L15.3172392,6.08527762 L15.0855215,8.49544551 L14.6673364,8.45523657 Z M14.9945351,9.44302822 L14.8792533,10.6417042 L14.4610074,10.601556 L14.5762892,9.40288001 L14.9945351,9.44302822 Z M13.7625744,7.91873262 L13.6742604,8.83728228 C13.6742604,8.83752524 13.6741997,8.83770745 13.674139,8.83795041 C13.6740782,8.83819336 13.674139,8.83837558 13.674139,8.83867927 L13.5133639,10.5105089 L12.3290222,10.396624 L12.5781719,7.80496925 C12.609513,7.4784386 12.8996612,7.2383997 13.2272244,7.26968008 C13.5538158,7.30102119 13.7939155,7.59220198 13.7625744,7.91873262 Z M11.4966606,9.1067794 L11.3813788,10.3054554 L10.7815245,10.2477538 L10.8968063,9.04907774 L11.4966606,9.1067794 Z M10.0830915,7.56505183 L9.99477755,8.48402666 C9.99477755,8.4840874 9.99477755,8.48420887 9.99471681,8.48426961 C9.99465607,8.48433035 9.99471681,8.48445183 9.99471681,8.48451257 L9.83394177,10.1567674 L9.49884698,10.1245152 L8.68853348,10.0465876 L8.64960005,10.0428218 L8.81037509,8.37093141 C8.81037509,8.37074919 8.81043583,8.37050624 8.81043583,8.37032402 C8.81043583,8.37014181 8.81043583,8.36995959 8.81043583,8.36977737 L8.89874973,7.45116698 C8.93015158,7.12463633 9.22145385,6.88429374 9.54780228,6.91593854 C9.7060263,6.93112319 9.84876198,7.00698568 9.94983099,7.12961689 C10.0510215,7.2522481 10.0982761,7.40688854 10.0830915,7.56505183 Z M7.81729918,8.7530986 L7.70201734,9.95177463 L7.28358921,9.91156568 L7.39887105,8.71288966 L7.81729918,8.7530986 Z M4.66253694,10.6158903 L8.08454897,10.9449113 C8.08460971,10.9449113 8.08467044,10.9449113 8.08473118,10.9449113 L8.81991105,11.0155503 L11.7637282,11.2985313 C11.7638497,11.2985313 11.7640319,11.2985921 11.7641533,11.2985921 L12.9937453,11.4167894 L15.2619671,11.6348409 C15.2620886,11.6348409 15.2622101,11.6348409 15.2622708,11.6348409 L17.318272,11.832545 L17.243928,12.6056865 L4.58807143,11.3889711 L4.66253694,10.6158903 Z M15.1745643,14.2085171 C14.88721,14.4452761 14.6990419,14.7704705 14.6356916,15.1333835 L14.0258154,15.0747708 C14.0327396,14.7063913 13.9098654,14.351435 13.6729849,14.0641414 C13.4101083,13.7453853 13.0388133,13.5480457 12.6274916,13.5084441 C12.215927,13.4688425 11.8141412,13.5918989 11.4953244,13.8547755 C11.2080308,14.0917168 11.0198627,14.4167897 10.9563909,14.7797027 L10.3462718,14.72109 C10.353196,14.3527105 10.2303218,13.9976934 9.9934413,13.7104606 C9.73056469,13.3916438 9.35926971,13.1943649 8.94794799,13.154824 C8.5365048,13.115101 8.13459756,13.2382181 7.81578072,13.5011555 C7.5284872,13.7380967 7.34031905,14.0631696 7.27684723,14.4260219 L6.66660664,14.3674092 C6.67359158,13.9989689 6.55071741,13.6440126 6.31377618,13.3567798 C6.09293068,13.0890442 5.79519012,12.9074358 5.4616138,12.8326058 L5.50000059,12.4330674 L16.1497831,13.456877 L16.1113963,13.856294 C15.7696202,13.8660122 15.4426037,13.9876108 15.1745643,14.2085171 Z M16.0179803,14.8239204 L15.7640323,17.4650772 L15.3664375,17.4268726 L15.5666319,15.3448146 C15.5818165,15.186712 15.6576183,15.0440978 15.7800673,14.9431503 C15.8504633,14.8850235 15.9316101,14.8447538 16.0179803,14.8239204 Z M14.5395424,16.0806018 L14.4189155,17.3358255 L13.8191827,17.2781845 L13.9398096,16.0229002 L14.5395424,16.0806018 Z M13.0716122,15.1052008 L12.8714785,17.1870159 L11.6871368,17.0731311 L11.8873312,14.991316 C11.918733,14.6647853 12.2086991,14.4248072 12.5363837,14.4560268 C12.694547,14.4712722 12.8373434,14.5471347 12.9384125,14.6697659 C13.0395422,14.7923971 13.0868576,14.9470376 13.0716122,15.1052008 Z M10.8602417,15.7267995 L10.7396148,16.9820232 L10.1397606,16.9243215 L10.2603874,15.6690979 L10.8602417,15.7267995 Z M9.3923115,14.7514593 L9.19211711,16.8332744 L8.00777539,16.7193895 L8.20796978,14.6375744 C8.22315442,14.4794112 8.29901692,14.3366147 8.42164813,14.2355457 C8.54427934,14.134416 8.69885904,14.0869184 8.85702232,14.1024068 C9.01524635,14.1175914 9.15798203,14.1934539 9.25905104,14.3160851 C9.36018078,14.4387163 9.40743541,14.593296 9.3923115,14.7514593 Z M7.18081952,15.3731187 L7.06019269,16.6282817 L6.46027766,16.57058 L6.58084375,15.3154171 L7.18081952,15.3731187 Z M5.71270712,14.3974748 L5.51251274,16.4795329 L5.11497868,16.4413283 L5.36892671,13.8001108 C5.4496483,13.8371006 5.52162352,13.892069 5.57968961,13.9625258 C5.68063715,14.084914 5.72789177,14.2393723 5.71270712,14.3974748 Z M4.02065155,17.2925189 L16.6765081,18.5092342 L16.6021641,19.2823757 L3.94630752,18.0656603 L4.02065155,17.2925189 Z M13.9939276,21.8100728 L13.3838693,21.7513993 C13.3980821,20.9528084 12.7939761,20.262818 11.9857277,20.1850726 C11.1775401,20.1076309 10.4529895,20.6697058 10.3147484,21.4563312 L9.70450784,21.3977185 C9.71872067,20.5991276 9.11461467,19.9091372 8.30636629,19.8313918 C7.4981179,19.7538894 6.77356729,20.3159643 6.635387,21.1025897 L6.02508568,21.0439162 C6.03207061,20.675476 5.90919645,20.3205197 5.67225522,20.0332869 C5.45140972,19.7656119 5.1537299,19.5840035 4.82027505,19.5091736 L4.85866184,19.1096352 L15.5078977,20.1333841 L15.4695109,20.5329225 C14.7422878,20.554424 14.1207498,21.0874658 13.9939276,21.8100728 Z M15.3760949,21.5008526 L15.1222076,24.1416449 L14.7245521,24.1034404 L14.9247465,22.0214431 C14.9495278,21.7633648 15.1370886,21.5592224 15.3760949,21.5008526 Z M13.897657,22.7571696 L13.7770301,24.0123932 L13.1773581,23.9547523 L13.2979849,22.6994679 L13.897657,22.7571696 Z M12.4297875,21.7817686 L12.2296539,23.8635837 L11.0453122,23.7496988 L11.2114929,22.0210179 C11.2114929,22.0208964 11.2115537,22.0208357 11.2115537,22.0207142 C11.2115537,22.0205927 11.2115537,22.020532 11.2115537,22.0204105 L11.2454458,21.6679445 C11.2768477,21.3414138 11.567664,21.1018001 11.8945591,21.1326553 C12.2210897,21.1641179 12.4611894,21.4552987 12.4297875,21.7817686 Z M10.2183563,22.403428 L10.0977295,23.6586517 L9.4979359,23.60095 L9.61856274,22.3457264 L10.2183563,22.403428 Z M8.7504261,21.4280271 L8.55023172,23.5098422 L7.36589,23.3959573 L7.53207077,21.6679445 C7.53207077,21.6676408 7.53219225,21.6673371 7.53219225,21.6669727 C7.53219225,21.666669 7.53219225,21.6663653 7.53225299,21.6660616 L7.56608438,21.3141422 C7.59748623,20.9876116 7.88909219,20.7475727 8.21519767,20.7789138 C8.54166758,20.8103156 8.78176721,21.1014964 8.7504261,21.4280271 Z M6.53893413,22.0497472 L6.41830729,23.3049102 L5.81839226,23.2472085 L5.9390191,21.9920456 L6.53893413,22.0497472 Z M5.07088246,21.0741033 L4.87068808,23.1561614 L4.4732755,23.1179568 L4.72722354,20.4768608 C4.80794512,20.5137898 4.87979887,20.5687583 4.93786496,20.6391543 C5.03881249,20.7615425 5.08606711,20.9160008 5.07088246,21.0741033 Z M3.37882689,23.9690866 L16.0346834,25.185802 L15.9603394,25.9589435 L3.30448286,24.7422281 L3.37882689,23.9690866 Z M4.42529202,27.7872357 L4.19837265,30.1462617 L3.79749798,30.1462617 L4.08175457,27.1901147 C4.08406263,27.191208 4.08630996,27.1923012 4.08855729,27.1933338 C4.09432745,27.1964922 4.1002191,27.1995291 4.10611074,27.2024446 C4.32063943,27.3124422 4.44879785,27.5465287 4.42529202,27.7872357 Z M5.76026543,30.146201 L5.15482319,30.146201 L5.29342865,28.7051172 L5.89334368,28.7628189 L5.76026543,30.146201 Z M8.10520009,28.1414024 L8.07167239,28.4896167 C8.07155091,28.4910745 8.07118648,28.4924107 8.071065,28.4938684 C8.07094352,28.4953262 8.07100426,28.4967232 8.07088278,28.4981809 L7.91223359,30.1461402 L6.7165945,30.1461402 L6.88623737,28.3839316 C6.88635885,28.3825953 6.88666254,28.3813198 6.88678402,28.3800443 C6.8869055,28.3787688 6.88684476,28.377554 6.88696623,28.3763393 L6.92061541,28.0270924 C6.94418198,27.7814048 7.11297452,27.5792668 7.35301342,27.5114218 C7.42231615,27.4914995 7.49568836,27.4849398 7.56857467,27.4917425 C7.64486233,27.4992741 7.715805,27.5196822 7.78182785,27.5534529 C7.98287257,27.6549471 8.10781185,27.8582391 8.10781185,28.083883 C8.10781185,28.1047163 8.10696151,28.1237882 8.10520009,28.1414024 Z M9.47394416,30.146201 L8.86862339,30.146201 L8.97327598,29.0589195 L9.57276584,29.1165604 L9.47394416,30.146201 Z M11.7845008,28.4952047 L11.7507909,28.8462737 C11.7507301,28.8466989 11.7506086,28.8471848 11.7506086,28.8476707 C11.7505479,28.8480959 11.7506086,28.8486425 11.7505479,28.8490677 L11.6259731,30.146201 L10.4303947,30.146201 L10.5654773,28.7399812 C10.5657203,28.7379161 10.5661454,28.7359117 10.5663884,28.7338466 C10.5665706,28.731903 10.5665099,28.7299593 10.5666314,28.7280157 L10.5999768,28.3808947 C10.6236041,28.1351463 10.7921537,27.9329476 11.031646,27.8652241 C11.1010702,27.8452411 11.1746246,27.8386206 11.2480576,27.8455448 C11.3242845,27.8530763 11.3951664,27.8734238 11.46125,27.9072552 C11.6622947,28.0087493 11.787234,28.2120414 11.787234,28.4376852 C11.7870518,28.4586401 11.7861407,28.4775298 11.7845008,28.4952047 Z M13.1877444,30.146201 L12.5823021,30.146201 L12.6527589,29.4126003 L13.2526739,29.470302 L13.1877444,30.146201 Z M14.5450088,30.146201 L14.1440734,30.146201 L14.2797027,28.7345147 C14.3028441,28.4926537 14.4757668,28.2857173 14.7104608,28.21933 C14.7172635,28.2174471 14.7240662,28.2155642 14.7309297,28.2139243 L14.5450088,30.146201 Z M14.8239812,27.2475734 C14.6973412,27.2513392 14.5722197,27.2690141 14.4506818,27.3035136 C13.8717216,27.4673256 13.4499528,27.9390214 13.3482764,28.5231444 L12.7383396,28.464471 C12.738461,28.4554817 12.7389469,28.4469783 12.7389469,28.437746 C12.7389469,27.8507075 12.4136918,27.3218567 11.8924332,27.0586764 C11.7222437,26.9715165 11.5368695,26.9175199 11.3393477,26.8980228 C11.1447412,26.8796797 10.9523821,26.8973547 10.7701056,26.9498328 C10.1915706,27.1134626 9.76998403,27.5850977 9.66836838,28.1693422 L9.05909961,28.1107902 C9.05922108,28.1018616 9.05970699,28.0931152 9.05970699,28.0840652 C9.05970699,27.4970267 8.73445185,26.9681759 8.21307182,26.7049348 C8.04294303,26.6178357 7.85769034,26.5638998 7.65998624,26.5442813 C7.46550128,26.5261204 7.27356734,26.5437346 7.09171601,26.5960305 C6.51263432,26.7595995 6.09080483,27.2312347 5.98912843,27.8156006 L5.37961671,27.7570486 C5.38927414,27.1771773 5.06608412,26.6280398 4.54701215,26.3587249 C4.5414242,26.3556272 4.53571477,26.3525903 4.5299446,26.3496748 C4.41642418,26.2922161 4.2971336,26.2509746 4.1741987,26.2231563 L4.21616906,25.7862029 L14.866073,26.8100733 L14.8239812,27.2475734 Z" id="Shape"></path>
                    </g>
                </g>
            </g>
        </g>
    </g>
</svg>