<?xml version="1.0" encoding="UTF-8"?>
<svg width="30px" height="26px" viewBox="0 0 30 26" version="1.1" xmlns="http://www.w3.org/2000/svg" xmlns:xlink="http://www.w3.org/1999/xlink">
    <!-- Generator: Sketch 46.2 (44496) - http://www.bohemiancoding.com/sketch -->
    <title>026-sphinx</title>
    <desc>Created with Sketch.</desc>
    <defs></defs>
    <g id="Welcome" stroke="none" stroke-width="1" fill="none" fill-rule="evenodd" opacity="0.597203351">
        <g id="main" transform="translate(-1274.000000, -1022.000000)" fill-rule="nonzero" fill="#000000">
            <g id="Group-9" transform="translate(1267.000000, 556.000000)">
                <g id="Group-12">
                    <g id="026-sphinx" transform="translate(7.982898, 466.000000)">
                        <path d="M27.7550942,20.2036351 L25.4213372,20.2036351 L23.5067448,20.2036351 L23.5067448,18.2009047 L23.5067448,16.3524846 C23.5067448,16.2310403 23.4526839,16.110697 23.3619034,16.029991 L22.3400314,15.121856 L23.3485258,13.0746438 C23.3829883,13.0045077 23.3982376,12.9227558 23.3911359,12.8449125 C23.3385614,12.2670335 23.261599,11.7185521 23.1657537,11.1973765 C23.1634966,11.1701258 23.158597,11.1436459 23.1515504,11.1181018 C23.0373178,10.5123115 22.8965503,9.94560801 22.7372303,9.41529376 C22.7310095,9.37483067 22.7193385,9.33623934 22.7027128,9.30034555 C22.5134997,8.6873985 22.2990728,8.12559461 22.0709381,7.61212622 C22.0594322,7.57105756 22.0420358,7.53257633 22.0196848,7.49745326 C21.5167864,6.3912969 20.9524501,5.51784462 20.4454778,4.8604157 C19.4478837,3.56664271 18.5031393,2.86252985 18.1309889,2.6126496 C18.080121,2.51482251 17.9926437,2.43747469 17.8828703,2.40141574 L15.5577564,1.63724133 L15.8065356,0.554261794 C15.8359333,0.426156193 15.8053795,0.291719631 15.7235725,0.18893787 C15.6417104,0.0861561092 15.5174585,0.0262597215 15.3861048,0.0262597215 L12.8939086,0.0262597215 C12.7624999,0.0262597215 12.638303,0.0861561092 12.5564409,0.18893787 C12.4745788,0.291719631 12.4440251,0.426211244 12.4734778,0.554261794 L12.7113567,1.5896215 L10.2411813,2.40136069 C10.1314079,2.43741964 10.0438755,2.51476746 9.99300763,2.61270466 C9.62085728,2.862695 8.67611288,3.56680787 7.67868388,4.8604157 C7.1717116,5.51784462 6.60737533,6.39135196 6.10442183,7.49750832 C6.08212584,7.53257633 6.06472947,7.57105756 6.05322364,7.61207117 C5.82508886,8.12553956 5.610662,8.68734345 5.42139382,9.3004006 C5.40482322,9.33629439 5.39315223,9.37477562 5.38693137,9.41518366 C5.22761139,9.94549791 5.08684386,10.5121464 4.97261132,11.1178816 C4.96545459,11.1435908 4.96061003,11.1701808 4.9583529,11.1975416 C4.86256272,11.7186622 4.78560027,12.2670885 4.73302577,12.8449125 C4.72592409,12.9228108 4.74111839,13.0045628 4.77563589,13.0746438 L5.80306813,15.1603923 L4.82452191,16.030046 C4.73357629,16.1109172 4.67968055,16.23082 4.67968055,16.3525396 L4.67968055,18.2009598 L4.67968055,20.2036902 L2.76514317,20.2036902 L0.431441168,20.2036902 C0.193176861,20.2036902 0,20.3968671 0,20.6351314 L0,24.6458772 C0,24.8841415 0.193176861,25.0773183 0.431441168,25.0773183 L2.76519822,25.0773183 L5.09890021,25.0773183 L5.11117677,25.0773183 L7.43265726,25.0773183 L12.8926424,25.0773183 L15.293893,25.0773183 L20.7538781,25.0773183 L23.0753586,25.0773183 L23.0876352,25.0773183 L25.4213922,25.0773183 L27.7550942,25.0773183 C27.9933586,25.0773183 28.1865354,24.8841415 28.1865354,24.6458772 L28.1865354,20.6350763 C28.1865354,20.396812 27.9933586,20.2036351 27.7550942,20.2036351 Z M2.33375705,24.214436 L0.862827284,24.214436 L0.862827284,22.3837425 L2.333702,22.3837425 L2.333702,24.214436 L2.33375705,24.214436 Z M2.33375705,21.5208602 L0.862827284,21.5208602 L0.862827284,21.0664624 L2.333702,21.0664624 L2.333702,21.5208602 L2.33375705,21.5208602 Z M4.66745905,24.214436 L3.19658433,24.214436 L3.19658433,22.3837425 L4.66745905,22.3837425 L4.66745905,24.214436 Z M3.19658433,21.5208602 L3.19658433,21.0664624 L4.66745905,21.0664624 L4.66745905,21.5208602 L3.19658433,21.5208602 Z M22.4828909,12.4526682 L19.3365138,12.4526682 L18.4499041,11.6647114 L22.3713008,11.6647114 C22.4134155,11.9205923 22.451126,12.1826941 22.4828909,12.4526682 Z M7.10333724,15.1592362 L21.0832532,15.1592362 L21.9404652,15.9210985 L6.24607019,15.9210985 L7.10333724,15.1592362 Z M5.85619315,13.3154404 L6.27552291,13.3154404 L7.87907253,13.3154404 L6.47211299,14.5658326 L5.85619315,13.3154404 Z M13.2314314,14.0456479 L15.0485821,14.0456479 C15.2868464,14.0456479 15.4800232,13.852471 15.4800232,13.6142067 L15.4800232,12.5280342 L15.7754864,12.5280342 C15.9460369,12.5280342 16.1006225,12.4275646 16.1698226,12.2716028 L16.6405157,11.2109192 L20.1123042,14.2962988 L8.07423126,14.2962988 L11.5438727,11.212846 L12.0348799,12.2773281 C12.1054013,12.430152 12.2583353,12.5280342 12.4266837,12.5280342 L12.7999902,12.5280342 L12.7999902,13.6142067 C12.8000452,13.852471 12.993167,14.0456479 13.2314314,14.0456479 Z M13.6628175,13.1827655 L13.6628175,12.5280342 L14.6171409,12.5280342 L14.6171409,13.1827655 L13.6628175,13.1827655 Z M21.6711517,14.5273514 L20.3075179,13.3154404 L22.2681337,13.3154404 L21.6711517,14.5273514 Z M22.2059802,10.8018291 L17.4789551,10.8018291 L17.0078215,10.3831049 L17.2167432,9.91241176 L21.9834607,9.91241176 C22.0639465,10.1976353 22.1383765,10.4941995 22.2059802,10.8018291 Z M19.856148,5.5112384 C20.2142601,5.9889231 20.5995679,6.58172117 20.9654974,7.29728482 L19.6934699,7.29728482 L19.856148,5.5112384 Z M18.1798749,3.73091737 C18.4489132,3.95409747 18.7828025,4.25963511 19.1449335,4.65408145 L18.1798749,4.65408145 L18.1798749,3.73091737 L18.1798749,3.73091737 Z M18.1798199,5.51685369 L18.9892469,5.51685369 L18.8282753,7.28396228 L18.1798199,7.39984638 L18.1798199,5.51685369 Z M17.9223975,8.32245994 L18.8306426,8.16011211 L21.3691374,8.16011211 C21.4887099,8.44120673 21.6037132,8.73782598 21.7123855,9.04952942 L17.5997388,9.04952942 L17.9223975,8.32245994 Z M14.8442847,0.889087006 L14.4491227,2.60929144 L13.8308356,2.60929144 L13.4356736,0.889087006 L14.8442847,0.889087006 L14.8442847,0.889087006 Z M10.8072792,5.08546757 L10.8072792,3.12358561 L12.9053594,2.43417158 L13.0668264,3.13729352 C13.1118588,3.33322297 13.2862079,3.47211873 13.4873122,3.47211873 L14.7927012,3.47211873 C14.9937504,3.47211873 15.1681546,3.33322297 15.213187,3.13729352 L15.3638088,2.48173636 L17.3169926,3.12358561 L17.3169926,5.08546757 L17.3169926,7.21938649 L15.9052435,7.21938649 C15.6669792,7.21938649 15.4738024,7.41256335 15.4738024,7.65082765 C15.4738024,7.88909196 15.6669792,8.08226882 15.9052435,8.08226882 L17.0849491,8.08226882 L15.4949423,11.665317 L15.0486371,11.665317 L13.2314864,11.665317 L12.7028237,11.665317 L11.0500578,8.08226882 L12.2190283,8.08226882 C12.4572926,8.08226882 12.6504694,7.88909196 12.6504694,7.65082765 C12.6504694,7.41256335 12.4572926,7.21938649 12.2190283,7.21938649 L10.8072792,7.21938649 L10.8072792,5.08546757 L10.8072792,5.08546757 Z M9.94439687,3.73075221 L9.94439687,4.65408145 L8.97884288,4.65408145 C9.3410839,4.25946996 9.67530354,3.95398737 9.94439687,3.73075221 Z M9.94439687,5.51685369 L9.94439687,7.39990143 L9.2959414,7.28401733 L9.13496986,5.51690874 L9.94439687,5.51690874 L9.94439687,5.51685369 Z M8.26801369,5.5112384 L8.43069184,7.29728482 L7.15871937,7.29728482 C7.52470392,6.58166612 7.91001166,5.98886805 8.26801369,5.5112384 Z M6.75513443,8.16011211 L9.29357417,8.16011211 L10.2112331,8.32416655 L10.5458381,9.04952942 L6.41183124,9.04952942 C6.52055859,8.73782598 6.63556186,8.44126179 6.75513443,8.16011211 Z M6.14075604,9.91241176 L10.9439729,9.91241176 L11.1662171,10.3942253 L10.7075253,10.8018291 L5.91829161,10.8018291 C5.98589525,10.4941995 6.06032532,10.1976353 6.14075604,9.91241176 Z M5.64138092,12.4526132 C5.67314582,12.182639 5.71085632,11.9206474 5.75297097,11.6647114 L9.73657622,11.6647114 L8.84996655,12.4526132 L5.64138092,12.4526132 Z M7.00127115,24.214436 L5.54261794,24.214436 L5.54261794,22.3837425 L7.0012161,22.3837425 L7.0012161,24.214436 L7.00127115,24.214436 Z M7.00127115,21.5208602 L5.54261794,21.5208602 L5.54261794,21.0664624 L7.0012161,21.0664624 L7.0012161,21.5208602 L7.00127115,21.5208602 Z M12.4612012,24.214436 L7.86409843,24.214436 L7.86409843,22.3837425 L12.4612012,22.3837425 L12.4612012,24.214436 Z M14.8624518,24.214436 L13.3240285,24.214436 L13.3240285,21.9779005 C13.324524,21.9693674 13.3252947,21.9609445 13.3252947,21.9523014 C13.3252947,21.9436582 13.3244689,21.9352353 13.3240285,21.9267023 L13.3240285,21.6636646 C13.3240285,21.3343997 13.5919107,21.0665175 13.9211757,21.0665175 L14.2653047,21.0665175 C14.5945696,21.0665175 14.8624518,21.3343997 14.8624518,21.6636646 L14.8624518,24.214436 Z M20.322437,24.214436 L15.7253342,24.214436 L15.7253342,22.3837425 L20.322437,22.3837425 L20.322437,24.214436 Z M22.6439175,24.214436 L21.1853193,24.214436 L21.1853193,22.3837425 L22.6439175,22.3837425 L22.6439175,24.214436 Z M22.6439175,21.5208602 L21.1853193,21.5208602 L21.1853193,21.0664624 L22.6439175,21.0664624 L22.6439175,21.5208602 Z M22.6439175,20.2036351 L20.7538781,20.2036351 C20.5156138,20.2036351 20.322437,20.396812 20.322437,20.6350763 L20.322437,21.5208602 L15.7182325,21.5208602 C15.6462247,20.7826152 15.0222122,20.2036351 14.2653047,20.2036351 L13.9211757,20.2036351 C13.1642681,20.2036351 12.5402557,20.7826152 12.4682479,21.5208602 L7.86404338,21.5208602 L7.86404338,20.6350763 C7.86404338,20.396812 7.67086652,20.2036351 7.43260221,20.2036351 L5.54261794,20.2036351 L5.54261794,18.6323459 L22.6439175,18.6323459 L22.6439175,20.2036351 Z M22.6439175,17.7694085 L5.54261794,17.7694085 L5.54261794,16.7838707 L22.6439175,16.7838707 L22.6439175,17.7694085 Z M24.989896,24.214436 L23.5190213,24.214436 L23.5190213,22.3837425 L24.989896,22.3837425 L24.989896,24.214436 Z M24.9899511,21.5208602 L23.5190764,21.5208602 L23.5190764,21.0664624 L24.9899511,21.0664624 L24.9899511,21.5208602 Z M27.3237081,24.214436 L25.8528334,24.214436 L25.8528334,22.3837425 L27.3237081,22.3837425 L27.3237081,24.214436 Z M27.3237081,21.5208602 L25.8528334,21.5208602 L25.8528334,21.0664624 L27.3237081,21.0664624 L27.3237081,21.5208602 Z" id="Shape"></path>
                        <path d="M11.9528527,19.2624141 L8.86114207,19.2624141 C8.62287776,19.2624141 8.4297009,19.4555909 8.4297009,19.6938552 C8.4297009,19.9321195 8.62287776,20.1252964 8.86114207,20.1252964 L11.9528527,20.1252964 C12.191117,20.1252964 12.3842938,19.9321195 12.3842938,19.6938552 C12.3842938,19.4555359 12.191117,19.2624141 11.9528527,19.2624141 Z" id="Shape"></path>
                        <path d="M19.3253933,19.2624141 L16.2336827,19.2624141 C15.9954184,19.2624141 15.8022416,19.4555909 15.8022416,19.6938552 C15.8022416,19.9321195 15.9954184,20.1252964 16.2336827,20.1252964 L19.3253933,20.1252964 C19.5636576,20.1252964 19.7568345,19.9321195 19.7568345,19.6938552 C19.7568345,19.4555359 19.5636576,19.2624141 19.3253933,19.2624141 Z" id="Shape"></path>
                        <path d="M16.1315616,5.04940862 L15.2952142,5.04940862 C15.0569499,5.04940862 14.8637731,5.24258548 14.8637731,5.48084979 L14.8637731,5.86467113 C14.8637731,6.10293544 15.0568949,6.2961123 15.2952142,6.2961123 C15.5173484,6.2961123 15.7002856,6.12820422 15.724068,5.91229096 L16.1315616,5.91229096 C16.3698259,5.91229096 16.5630028,5.7191141 16.5630028,5.48084979 C16.5630028,5.24258548 16.3698259,5.04940862 16.1315616,5.04940862 Z" id="Shape"></path>
                        <path d="M12.7901359,5.04940862 L11.9537886,5.04940862 C11.7155242,5.04940862 11.5223474,5.24258548 11.5223474,5.48084979 C11.5223474,5.7191141 11.7155242,5.91229096 11.9537886,5.91229096 L12.3612822,5.91229096 C12.3849545,6.12809412 12.5678917,6.2961123 12.7901359,6.2961123 C13.0284002,6.2961123 13.2215771,6.10293544 13.2215771,5.86467113 L13.2215771,5.48084979 C13.2215771,5.24258548 13.0284002,5.04940862 12.7901359,5.04940862 Z" id="Shape"></path>
                        <path d="M14.0932677,5.38109588 C13.8550034,5.38109588 13.6618265,5.57427274 13.6618265,5.81253705 L13.6618265,7.65082765 C13.6618265,7.88909196 13.8550034,8.08226882 14.0932677,8.08226882 C14.331532,8.08226882 14.5247089,7.88909196 14.5247089,7.65082765 L14.5247089,5.81253705 C14.5247089,5.57427274 14.331532,5.38109588 14.0932677,5.38109588 Z" id="Shape"></path>
                        <path d="M15.2483651,9.48091554 C14.9269175,9.20273866 14.5162309,9.04947437 14.0918364,9.04947437 C13.6673868,9.04947437 13.256535,9.20268361 12.9350323,9.48091554 C12.7547376,9.63682231 12.7350841,9.9092738 12.8910459,10.0894584 C12.9763762,10.1880563 13.0965544,10.2385388 13.2175032,10.2385388 C13.3175324,10.2385388 13.418057,10.2039112 13.4995888,10.1333347 C13.6643039,9.99080556 13.8746569,9.91230165 14.0917813,9.91230165 C14.3087406,9.91230165 14.5189284,9.99075051 14.6835884,10.1333347 C14.8637731,10.2892415 15.1361695,10.269533 15.2921864,10.0895135 C15.4480381,9.90932886 15.4284947,9.63687736 15.2483651,9.48091554 Z" id="Shape"></path>
                    </g>
                </g>
            </g>
        </g>
    </g>
</svg>