<?xml version="1.0" encoding="UTF-8"?>
<svg width="24px" height="30px" viewBox="0 0 24 30" version="1.1" xmlns="http://www.w3.org/2000/svg" xmlns:xlink="http://www.w3.org/1999/xlink">
    <!-- Generator: Sketch 46.2 (44496) - http://www.bohemiancoding.com/sketch -->
    <title>012-space-needle</title>
    <desc>Created with Sketch.</desc>
    <defs></defs>
    <g id="Welcome" stroke="none" stroke-width="1" fill="none" fill-rule="evenodd" opacity="0.6">
        <g id="main" transform="translate(-1276.000000, -1211.000000)" fill-rule="nonzero" fill="#000000">
            <g id="Group-9" transform="translate(1267.000000, 556.000000)">
                <g id="Group-12">
                    <g id="Group-2-Copy-3">
                        <g id="012-space-needle" transform="translate(9.120595, 655.000000)">
                            <path d="M19.9344334,17.7090414 L18.8389299,17.7090414 C18.5874886,17.7090414 18.3837335,17.9127965 18.3837335,18.1642378 C18.3837335,18.4156791 18.5874886,18.6194343 18.8389299,18.6194343 L19.9344334,18.6194343 C20.1858746,18.6194343 20.3896298,18.4156791 20.3896298,18.1642378 C20.3896298,17.9127965 20.1858746,17.7090414 19.9344334,17.7090414 Z" id="Shape"></path>
                            <path d="M2.05120107,25.8242236 L0.955639563,25.8242236 C0.704198266,25.8242236 0.500443109,26.0279787 0.500443109,26.27942 C0.500443109,26.5308613 0.704198266,26.7346165 0.955639563,26.7346165 L2.05120107,26.7346165 C2.30264237,26.7346165 2.50639752,26.5308613 2.50639752,26.27942 C2.50639752,26.0279787 2.30258428,25.8242236 2.05120107,25.8242236 Z" id="Shape"></path>
                            <path d="M22.1816645,22.6943051 L19.8016556,22.6943051 C19.5502143,22.6943051 19.3464592,22.8980602 19.3464592,23.1495015 C19.3464592,23.4009428 19.5502143,23.604698 19.8016556,23.604698 L22.1816645,23.604698 C22.4331058,23.604698 22.636861,23.4009428 22.636861,23.1495015 C22.636861,22.8980602 22.4331058,22.6943051 22.1816645,22.6943051 Z" id="Shape"></path>
                            <path d="M19.9850817,25.0100742 L17.6927201,25.0100742 C17.4412788,25.0100742 17.2375236,25.2138294 17.2375236,25.4652707 C17.2375236,25.716712 17.4412788,25.9204671 17.6927201,25.9204671 L19.9850817,25.9204671 C20.236523,25.9204671 20.4402782,25.716712 20.4402782,25.4652707 C20.4402782,25.2138294 20.2364649,25.0100742 19.9850817,25.0100742 Z" id="Shape"></path>
                            <path d="M5.00315327,20.6386316 L2.71079159,20.6386316 C2.45935029,20.6386316 2.25559514,20.8423868 2.25559514,21.0938281 C2.25559514,21.3452694 2.45935029,21.5490245 2.71079159,21.5490245 L5.00315327,21.5490245 C5.25459456,21.5490245 5.45834972,21.3452694 5.45834972,21.0938281 C5.45834972,20.8423868 5.25459456,20.6386316 5.00315327,20.6386316 Z" id="Shape"></path>
                            <path d="M23.106462,11.0145112 C23.1229576,11.0242111 23.1259779,11.0259536 23.1062878,11.014395 C22.390531,10.5939322 23.0026677,10.9535821 23.1055908,11.0139885 C22.2700669,10.5233033 21.316344,10.2639627 20.3474615,10.2639627 L19.6170098,10.2639627 L20.0049461,9.51445971 C20.130812,9.27004645 20.0054689,8.95988324 19.7439211,8.87322341 L14.5892874,7.16395695 C14.5779031,7.16012347 14.5735469,7.15872948 14.5732565,7.14223391 C14.572908,7.12568026 14.577148,7.12411202 14.5884742,7.11981387 L15.2909881,6.8563494 C15.4686059,6.7897282 15.5862821,6.61989351 15.5862821,6.43019444 L15.5862821,5.64979128 C15.5862821,5.39834998 15.3825269,5.19459483 15.1310856,5.19459483 L14.7325201,5.19459483 L13.9586222,4.23889718 C13.8721947,4.13214063 13.742263,4.07016607 13.6048967,4.07016607 L13.0246476,4.07016607 L12.775065,3.04569816 C12.725404,2.84182683 12.5426749,2.69824566 12.332821,2.69824566 L12.0539645,2.69824566 L12.0539645,0.455196454 C12.0539645,0.203755156 11.8502094,0 11.5987681,0 C11.3473268,0 11.1435716,0.203755156 11.1435716,0.455196454 L11.1435716,2.69824566 L10.8596619,2.69824566 C10.6498081,2.69824566 10.467079,2.84176875 10.417418,3.04569816 L10.1678354,4.07016607 L9.5875862,4.07016607 C9.45021991,4.07016607 9.32028825,4.13214063 9.23386075,4.2388391 L8.45984672,5.19459483 L8.06650866,5.19459483 C7.81506736,5.19459483 7.6113122,5.39834998 7.6113122,5.64979128 L7.6113122,6.43013636 C7.6113122,6.61983543 7.72898835,6.7897282 7.90660616,6.85629131 L8.6091781,7.11975579 C8.62044621,7.12399585 8.62468626,7.12556409 8.62433777,7.14217583 C8.62404735,7.1586714 8.61974921,7.16012347 8.60824878,7.16389887 L3.45367313,8.87322341 C3.19270622,8.95959283 3.06591104,9.2705692 3.19264814,9.51445971 L3.5805264,10.2639627 L3.0042269,10.2639627 C2.07722225,10.2639627 1.15939472,10.5028 0.350182394,10.9544534 L0.251847879,11.0092837 C0.107511629,11.0897868 0.0181218953,11.2421385 0.0182961443,11.4074427 C0.0184703933,11.5726888 0.108266708,11.7248663 0.252719124,11.8050208 L0.35146022,11.8596769 C1.04921127,12.2461612 1.82682645,12.4750082 2.62087911,12.530826 L2.80883569,13.7693878 C2.56790742,13.8071417 2.32732764,13.8465801 2.08738678,13.8888064 L1.32098162,14.023559 C1.14417697,14.0546334 1.00210596,14.1867722 0.958369464,14.3609631 C0.914574884,14.535096 0.977304521,14.7186963 1.11838812,14.8296929 C2.60995951,16.0030856 4.43922544,16.7017079 6.32744562,16.829839 C7.22842908,20.8605087 7.79322815,25.8725486 8.07405944,28.8282181 L6.09116398,28.8282181 C5.83972268,28.8282181 5.63596753,29.0319733 5.63596753,29.2834146 C5.63596753,29.5348559 5.83972268,29.7386111 6.09116398,29.7386111 L17.1516188,29.7386111 C17.4030601,29.7386111 17.6068153,29.5348559 17.6068153,29.2834146 C17.6068153,29.0319733 17.4030601,28.8282181 17.1516188,28.8282181 L14.7810775,28.8282181 C15.466573,24.3868436 16.5912922,18.3549824 16.8766539,16.8383192 C18.8161033,16.7369643 20.7009547,16.0331146 22.2308028,14.8296929 C22.3718864,14.7186963 22.434616,14.535096 22.3908214,14.3609631 C22.3470849,14.1868303 22.2049558,14.0546334 22.0282093,14.023559 L21.2618041,13.8888064 C20.972725,13.8379257 20.6828328,13.7904719 20.3922435,13.7460965 L20.5753212,12.5393642 C21.4644557,12.5025976 22.3347132,12.2492396 23.1049519,11.8000838 C23.2446415,11.7186514 23.3306624,11.5692038 23.3308947,11.4076169 C23.3311851,11.2460881 23.2458031,11.0964663 23.106462,11.0145112 Z M11.2173951,3.60863857 L11.9752621,3.60863857 L12.0874784,4.06912058 L11.1051788,4.06912058 L11.2173951,3.60863857 Z M9.80475853,4.98044281 L13.3878406,4.98044281 L13.5611602,5.19447866 L9.63138078,5.19447866 L9.80475853,4.98044281 Z M8.98863433,28.8281601 C8.66609944,25.4031799 8.11698278,20.7407996 7.26496329,16.851504 L7.85984935,16.851504 C8.10856075,18.3780413 9.02557512,24.2078899 9.30878781,28.8281601 L8.98863433,28.8281601 Z M10.220749,28.8281601 C9.94717804,24.294027 9.06414223,18.5962011 8.78220735,16.851504 L9.18768476,16.851504 C9.4038116,18.4502385 10.2122688,24.5889144 10.4730615,28.8281601 L10.220749,28.8281601 Z M13.8600554,28.8281601 L11.3850807,28.8281601 C11.1321293,24.6575104 10.3466148,18.6384855 10.1062674,16.851504 L10.5901568,16.851504 C10.5955005,16.9799255 10.6280269,17.7018972 10.6374945,17.897695 C10.67914,18.7529671 10.7415211,19.8933687 10.826845,21.090982 C10.8636116,21.6015316 10.9029919,22.1117907 10.9473092,22.6217013 C10.9443469,22.6426693 10.9791967,22.9795507 10.9860505,23.0534903 C11.099022,24.2732333 11.2223322,25.2748165 11.3540644,26.0381433 C11.5376648,27.1015268 11.7347404,27.8151345 12.107459,28.0763337 C12.211776,28.1495183 12.3299749,28.1872142 12.4654245,28.1872142 C12.4793644,28.1872142 12.4941175,28.1866334 12.5092191,28.1856459 C12.5153759,28.1852974 12.5214746,28.1848328 12.5276314,28.1843681 C12.5290835,28.1842519 12.5305355,28.1840777 12.5319876,28.1839035 C12.7378338,28.1659558 12.9221892,28.0636716 13.0938825,27.8628206 C13.0953927,27.8610781 13.0969609,27.8595099 13.0984711,27.8577093 C13.1013752,27.8542824 13.1039309,27.8506813 13.1067189,27.8471963 C13.3765144,27.5228028 13.6159325,26.9535313 13.8608104,26.084145 C14.1301994,25.1275761 14.4051062,23.7997988 14.6776316,22.1377538 C15.0363522,19.9504643 15.2985389,17.7408128 15.3990805,16.8514459 L15.948023,16.8514459 C15.6116062,18.6438872 14.5209237,24.5203184 13.8600554,28.8281601 Z M12.2951832,26.1302629 C12.210324,25.6772736 12.1449225,25.2206832 12.0866072,24.763628 L12.2977389,24.763628 L12.2977389,26.1436801 C12.2968676,26.1391496 12.2959964,26.1347934 12.2951832,26.1302629 Z M11.9804895,23.8532351 C11.9753202,23.8052005 11.9702089,23.7573401 11.9650976,23.7080276 C11.9635293,23.6933326 11.9264724,23.3299654 11.9085828,23.1407891 L12.2977389,23.1407891 L12.2977389,23.8532351 L11.9804895,23.8532351 Z M11.827557,22.2304543 C11.8201805,22.1409484 11.782078,21.6643774 11.7709842,21.5180082 L12.2976808,21.5180082 L12.2976808,22.2304543 L11.827557,22.2304543 Z M11.705815,20.6076153 C11.6897261,20.3701139 11.674276,20.1326706 11.659581,19.8951112 L12.2977389,19.8951112 L12.2977389,20.6076153 L11.705815,20.6076153 Z M11.6058542,18.9847763 C11.5925532,18.747275 11.5798911,18.5098317 11.5676937,18.2723303 L12.2977389,18.2723303 L12.2977389,18.9847763 L11.6058542,18.9847763 Z M11.5236087,17.3618793 C11.5146639,17.1656749 11.5072874,16.9940978 11.5013629,16.8514459 L12.297797,16.8514459 L12.297797,17.3618793 L12.2977389,17.3618793 L11.5236087,17.3618793 Z M13.2080737,24.9535594 L13.2080737,16.8514459 L14.4827632,16.8514459 C14.3820473,17.7354691 14.1507608,19.6615013 13.8376353,21.6288306 C13.607859,23.0726577 13.3956237,24.1498069 13.2080737,24.9535594 Z M20.7736746,14.7288028 C19.4561779,15.5153627 17.9353327,15.9404141 16.39381,15.941053 L14.9911637,15.941053 C14.9907571,15.941053 14.9902924,15.9411111 14.9898858,15.9411111 L12.7528192,15.9411111 L11.0289739,15.9411111 C11.0285673,15.9411111 11.0281607,15.941053 11.0277541,15.941053 L9.58491438,15.941053 C9.58456589,15.941053 9.58415931,15.9411111 9.58381081,15.9411111 L8.24737911,15.9411111 C8.24697253,15.9411111 8.24650787,15.941053 8.2460432,15.941053 L6.95561324,15.941053 C5.41409048,15.9404722 3.89318718,15.5153046 2.57574862,14.7288028 C4.66801437,14.3798401 6.80076397,14.2030355 8.92090955,14.2030355 L14.4283975,14.2030355 C16.5486592,14.2030355 18.6814088,14.3798401 20.7736746,14.7288028 Z M3.54393411,12.5445916 L4.73812055,12.5445916 L4.73812055,13.5157393 C4.39479195,13.5523316 4.05198609,13.5932221 3.70993532,13.6387591 L3.54393411,12.5445916 Z M5.64845537,13.4295442 L5.64845537,12.5445916 L6.89857573,12.5445916 L6.89857573,13.3452657 C6.48159789,13.3667565 6.0647943,13.3948686 5.64845537,13.4295442 Z M7.80896864,13.30908 L7.80896864,12.5445916 L9.059089,12.5445916 L9.059089,13.2926426 L8.92096764,13.2926426 C8.55051428,13.2927006 8.1797705,13.2985089 7.80896864,13.30908 Z M9.96942383,13.2927006 L9.96942383,12.5446497 L11.2195442,12.5446497 L11.2195442,13.2927006 L9.96942383,13.2927006 Z M12.129879,13.2927006 L12.129879,12.5446497 L13.3799994,12.5446497 L13.3799994,13.2927006 L12.129879,13.2927006 Z M14.2903923,13.2927006 L14.2903923,12.5446497 L15.5405126,12.5446497 L15.5405126,13.30908 C15.1696527,13.298567 14.7988509,13.2927006 14.4284556,13.2927006 L14.2903923,13.2927006 Z M16.4508475,13.3453238 L16.4508475,12.5446497 L17.7009678,12.5446497 L17.7009678,13.4296023 C17.284687,13.3948686 16.8678253,13.3666984 16.4508475,13.3453238 Z M18.6113027,13.5157974 L18.6113027,12.5446497 L19.6538344,12.5446497 L19.4907373,13.6193594 C19.1980571,13.5814893 18.9049122,13.5470461 18.6113027,13.5157974 Z M20.3501334,11.6342568 L20.1832609,11.6342568 L3.0144495,11.6342568 L3.00178741,11.6342568 C2.51702671,11.6342568 2.03499591,11.5561932 1.57637256,11.4054098 C2.03563482,11.2531742 2.5184207,11.1744137 3.00434306,11.1744137 L4.32735759,11.1744137 C4.32793842,11.1744137 4.32851925,11.1745299 4.32910008,11.1745299 C4.32979707,11.1745299 4.33043599,11.1744137 4.3310749,11.1744137 L7.97253036,11.1744137 C8.22397166,11.1744137 8.42772682,10.9706585 8.42772682,10.7192172 C8.42772682,10.467776 8.22397166,10.2640208 7.97253036,10.2640208 L4.6057494,10.2640208 L4.34513098,9.76049929 L13.2422846,9.76049929 C13.4937259,9.76049929 13.697481,9.55674413 13.697481,9.30530283 C13.697481,9.05386154 13.4937259,8.85010638 13.2422846,8.85010638 L6.41590602,8.85010638 L8.89494645,8.02805771 C9.27585475,7.90178527 9.52700564,7.56089616 9.53467259,7.15971689 C9.54245571,6.75853763 9.30466392,6.40823907 8.92898309,6.2673878 L8.52182128,6.1146876 L8.52182128,6.10492965 L14.6760634,6.10492965 L14.6760634,6.1146876 L14.2689597,6.2673878 C13.8932207,6.40823907 13.655429,6.75853763 13.6632121,7.15971689 C13.6709371,7.56089616 13.9220299,7.90178527 14.3028801,8.02805771 L16.7819786,8.85010638 L15.1037866,8.85010638 C14.8523453,8.85010638 14.6485901,9.05386154 14.6485901,9.30530283 C14.6485901,9.55674413 14.8523453,9.76049929 15.1037866,9.76049929 L18.8525794,9.76049929 L18.591961,10.2640208 L9.78599772,10.2640208 C9.53455643,10.2640208 9.33080127,10.467776 9.33080127,10.7192172 C9.33080127,10.9706585 9.53455643,11.1744137 9.78599772,11.1744137 L18.8665194,11.1744137 C18.8671583,11.1744137 18.8678553,11.1745299 18.8684942,11.1745299 C18.869075,11.1745299 18.8696558,11.1744137 18.8702367,11.1744137 L20.3474615,11.1744137 C20.8345456,11.1744137 21.317041,11.2531162 21.776071,11.4054098 C21.3176799,11.5562513 20.8361138,11.6342568 20.3501334,11.6342568 Z" id="Shape"></path>
                        </g>
                    </g>
                </g>
            </g>
        </g>
    </g>
</svg>