<?xml version="1.0" encoding="UTF-8"?>
<svg width="16px" height="33px" viewBox="0 0 16 33" version="1.1" xmlns="http://www.w3.org/2000/svg" xmlns:xlink="http://www.w3.org/1999/xlink">
    <!-- Generator: Sketch 46.2 (44496) - http://www.bohemiancoding.com/sketch -->
    <title>Shape</title>
    <desc>Created with Sketch.</desc>
    <defs></defs>
    <g id="Welcome" stroke="none" stroke-width="1" fill="none" fill-rule="evenodd" opacity="0.6">
        <g id="main" transform="translate(-1280.000000, -1162.000000)" fill-rule="nonzero" fill="#000000">
            <g id="Group-9" transform="translate(1267.000000, 556.000000)">
                <g id="Group-12">
                    <g id="Group-2-Copy-3">
                        <g id="015-statue-of-liberty" transform="translate(8.120595, 606.000000)">
                            <path d="M17.4760334,18.6484825 C17.6556618,18.6484825 17.8272785,18.5508155 17.91598,18.384222 L18.4811896,17.322475 L19.055619,17.6883447 C19.1362452,17.7397852 19.2292704,17.7664274 19.3233131,17.7664274 C19.362418,17.7664274 19.4017773,17.7618493 19.4403736,17.7525022 C19.5719951,17.7207096 19.6850497,17.6366499 19.7534675,17.5197165 L20.6102792,16.0547116 C20.6774888,15.9397494 20.6959286,15.8026595 20.6614653,15.6740901 C20.6270021,15.5453935 20.5424337,15.4359632 20.4266449,15.3701525 L19.7312126,14.9744612 L20.1916337,14.1094471 C20.261196,13.9786521 20.269017,13.8236948 20.2129347,13.6866049 C20.1568525,13.5495151 20.0426534,13.4444086 19.9013669,13.3999625 L18.0065254,12.8034689 L17.1548006,11.5618391 C17.0844753,11.4594032 16.9784786,11.3868524 16.8574758,11.3584934 L15.0002769,10.9234429 L14.755855,10.8465683 L14.755855,9.58885138 C15.0021844,9.33056796 15.1441704,8.98415534 15.1441704,8.62152848 L15.1441704,7.97804541 L16.3327065,7.97804541 C16.6079036,7.97804541 16.8310243,7.75498824 16.8310243,7.47972755 C16.8310243,7.20446687 16.6079036,6.98140969 16.3327065,6.98140969 L16.2051544,6.98140969 L16.6152795,6.858245 C16.8788405,6.77914491 17.0282659,6.50121364 16.9491022,6.23765264 C16.8698749,5.97409165 16.5920072,5.82447548 16.3285098,5.90382991 L15.2948039,6.21438043 C15.277763,6.17406736 15.2595776,6.13419939 15.239739,6.09522161 L16.0427576,5.45459989 C16.2578666,5.28291962 16.2931564,4.9693806 16.1215397,4.75433517 C15.9499231,4.53916257 15.636384,4.50399991 15.421275,4.67548942 L14.5729202,5.35229117 C14.3648055,5.21323015 14.1283319,5.10920463 13.8728462,5.04987956 L13.8728462,4.20902779 C13.8728462,3.9337671 13.6497255,3.71070993 13.3745284,3.71070993 C13.0993313,3.71070993 12.8762105,3.9337671 12.8762105,4.20902779 L12.8762105,5.04981598 C12.6209792,5.10914105 12.3845055,5.21310298 12.1764545,5.35210041 L11.328354,4.675553 C11.1131814,4.50399991 10.7997059,4.53922616 10.6280892,4.75439875 C10.4564726,4.96944418 10.4917624,5.28298321 10.7068714,5.45466347 L11.5094448,6.09496727 C11.4896062,6.13394505 11.4713573,6.1738766 11.4542528,6.21431684 L10.4211191,5.90389349 C10.2276291,5.84571296 10.0268904,5.91114222 9.90219965,6.05401835 L9.71850177,5.19288286 L9.58083963,4.00790754 C9.55623213,3.79642289 9.40013026,3.62391601 9.19207922,3.57857971 L8.73083158,3.47792421 L8.78348019,3.47792421 C9.05867729,3.47792421 9.28179805,3.25486703 9.28179805,2.97960635 C9.28179805,2.70434566 9.05867729,2.48128849 8.78348019,2.48128849 L8.64123991,2.48128849 C8.68110789,2.33930255 8.7026633,2.18281917 8.7026633,2.01171117 C8.7026633,1.19292349 7.869251,0.314492808 7.70214887,0.146818418 C7.60848775,0.0528393699 7.48144436,0 7.34886904,0 C7.21629373,0 7.08931392,0.0528393699 6.99577997,0.146691247 C6.82867785,0.314365637 5.99526555,1.19279632 5.99526555,2.011584 C5.99526555,2.18275558 6.01688454,2.33917538 6.05668893,2.48116131 L5.91444865,2.48116131 C5.63925155,2.48116131 5.41613079,2.70421849 5.41613079,2.97947917 C5.41613079,3.25473986 5.63925155,3.47779703 5.91444865,3.47779703 L5.98197622,3.47779703 L6.26086127,6.12103723 C6.28763068,6.37455176 6.50146798,6.56702441 6.75638138,6.56702441 L7.54108735,6.56702441 L8.06210516,8.92781878 L7.05796637,9.96705664 C6.92227538,10.1073894 6.88119929,10.3139779 6.95260556,10.4956411 L7.75250842,12.5294799 C7.78697164,12.6171005 7.84845861,12.6963277 7.92482453,12.751329 L9.96553059,14.2222473 L9.18495766,15.9977392 C9.12601411,16.1318406 9.12900262,16.2849539 9.19322375,16.4165754 L9.89749434,17.8619325 L9.54287922,19.6114816 C9.52660139,19.6916626 9.53041651,19.7745778 9.5537523,19.853042 L9.92610772,21.1004581 L10.0798569,23.3186307 L9.55941139,24.8512268 C9.54186186,24.902858 9.53295992,24.9570327 9.53295992,25.0114617 L9.53295992,28.4843627 C9.53295992,28.591949 9.5684405,28.6932403 9.62903728,28.7766006 L8.94085376,28.7766006 C8.66565666,28.7766006 8.4425359,28.9996578 8.4425359,29.2749185 L8.4425359,30.2109574 L7.94218332,30.2109574 C7.66698621,30.2109574 7.44386546,30.4340146 7.44386546,30.7092753 L7.44386546,32.0572833 C7.44386546,32.332544 7.66698621,32.5556011 7.94218332,32.5556011 L19.2717454,32.5556011 C19.5469425,32.5556011 19.7700633,32.332544 19.7700633,32.0572833 L19.7700633,30.7092753 C19.7700633,30.4340146 19.5469425,30.2109574 19.2717454,30.2109574 L18.7713928,30.2109574 L18.7713928,29.2749185 C18.7713928,28.9996578 18.548272,28.7766006 18.2730749,28.7766006 L17.1102273,28.7766006 L17.1102273,25.5297453 C17.1344533,25.5333061 17.1589336,25.5357223 17.1835411,25.5357223 C17.2655026,25.5357223 17.3479091,25.5155022 17.4228761,25.4744897 C17.5970998,25.3791118 17.6980096,25.1893733 17.6797607,24.9916231 L17.4521254,22.5254679 C17.4521254,22.5252136 17.4520618,22.5250228 17.4519982,22.5247685 C17.4519346,22.5245141 17.4519982,22.5243234 17.4519982,22.524069 L17.0718854,18.5333295 L17.305752,18.618343 C17.3618343,18.6387539 17.4192518,18.6484825 17.4760334,18.6484825 Z M7.34886904,1.26801771 C7.54178679,1.53119719 7.70590041,1.82286288 7.70590041,2.01164759 C7.70590041,2.30299535 7.63919944,2.36995066 7.34886904,2.36995066 C7.05853864,2.36995066 6.99183768,2.30299535 6.99183768,2.01164759 C6.99190127,1.8227993 7.15601488,1.53107002 7.34886904,1.26801771 Z M7.49257178,5.57051586 L7.20484838,5.57051586 L6.98408028,3.47786062 L7.71378498,3.47786062 L7.49257178,5.57051586 Z M19.4953112,15.9868025 L19.1544305,16.5697524 L18.9507669,16.4400384 L19.2625891,15.8542908 L19.4953112,15.9868025 Z M16.4421367,12.2846766 L17.1230715,13.2774336 L16.6672286,14.2853239 L16.5741398,13.3077002 C16.5668911,13.2313343 16.5420292,13.157639 16.5016526,13.092464 L15.9260786,12.1636738 L16.4421367,12.2846766 Z M16.5815793,23.9385236 L16.1790208,23.6256205 L16.2880696,23.5594282 L16.5328729,23.410893 L16.5815793,23.9385236 Z M14.8007462,12.2399126 L15.5930825,13.5184218 L16.4301191,22.3074975 L15.0433877,23.1489216 L14.6110078,23.4112745 L15.0852268,14.6320545 C15.1000422,14.3572389 14.8893205,14.122482 14.6145685,14.1076031 C14.3381633,14.0925334 14.1049961,14.3034457 14.0901171,14.5783249 L13.8800949,18.4666285 L10.9928144,22.0755384 L10.9253504,21.1031287 L12.6769978,17.2798092 L13.3665166,16.2471207 C13.519312,16.0182137 13.4576979,15.7087441 13.2287909,15.5560122 C12.9999475,15.4032168 12.6904779,15.4647674 12.5376824,15.6936744 L11.8260996,16.7594273 C11.8114114,16.7814278 11.79844,16.8046364 11.7875033,16.8286081 L10.5973775,19.4262576 L10.8963555,17.9512062 L12.1039672,15.324689 L14.8007462,12.2399126 Z M14.869164,26.8528915 C14.5939669,26.8528915 14.3708461,27.0759486 14.3708461,27.3512093 L14.3708461,28.7767278 L10.9177202,28.7767278 L10.9177202,28.3225381 L11.7568552,27.5143056 L11.7568552,27.7833349 C11.7568552,28.0585956 11.9799759,28.2816528 12.255173,28.2816528 C12.5303701,28.2816528 12.7534909,28.0585956 12.7534909,27.7833349 L12.7534909,26.6617541 L15.0774694,25.5923132 C15.2253052,25.5243406 15.3305388,25.3883952 15.3595337,25.2282875 C15.3885286,25.0681798 15.337406,24.9040026 15.2228254,24.7885953 L14.8617245,24.4247603 L15.0779781,24.2935203 L15.26689,24.1789396 L16.1135916,24.8371108 L16.1135916,28.7767278 L15.3674819,28.7767278 L15.3674819,27.3512093 C15.3674819,27.0759486 15.1443611,26.8528915 14.869164,26.8528915 Z M10.5295956,25.0939318 L11.0277227,23.6272101 L13.7876419,20.1775177 L13.5649663,24.3001331 C13.5574632,24.4391306 13.6108113,24.5792725 13.7089234,24.6780205 L14.0135604,24.9849466 L12.0469312,25.8898924 C12.0025487,25.9103668 11.9510446,25.9447029 11.9142923,25.9791661 L10.5295956,27.2780863 L10.5295956,25.0939318 Z M10.4063038,16.6311122 L10.190241,16.1876048 L10.9891265,14.3704646 L12.9204023,12.8764012 L11.3060991,14.7229814 C11.2746244,14.7589707 11.2484908,14.7993474 11.2285251,14.8428397 L10.4063038,16.6311122 Z M12.9822707,10.221207 C13.1094413,10.2563061 13.2400455,10.274873 13.3709676,10.274873 C13.5016989,10.274873 13.6322395,10.2562425 13.7592829,10.2212706 L13.7592829,10.7241666 L13.7592193,10.7241666 C13.4715595,10.6859518 13.1978884,10.557446 12.9822707,10.3635109 L12.9822707,10.221207 L12.9822707,10.221207 Z M12.8894362,9.04023756 L12.7629651,8.94962853 C12.6574135,8.87396205 12.5943369,8.75130604 12.5943369,8.6214013 L12.5943369,7.74951991 C12.6824026,7.44532792 13.0042713,7.22360604 13.3744648,7.22360604 C13.7360107,7.22360604 14.0510758,7.43540861 14.1475346,7.72872752 L14.1475346,8.6214013 C14.1475346,8.75130604 14.084458,8.87402563 13.9789065,8.94962853 L13.8524353,9.04023756 L12.8894362,9.04023756 Z M13.3744648,5.98928853 C13.7751156,5.98928853 14.1249619,6.18284213 14.3077695,6.46846722 C14.0350523,6.31440008 13.7153455,6.22697032 13.3744648,6.22697032 C13.0336477,6.22697032 12.7140044,6.31433649 12.44116,6.46840363 C12.6239677,6.18284213 12.9738139,5.98928853 13.3744648,5.98928853 Z M12.4388709,11.6506042 L12.6183722,11.3345853 C12.7428722,11.416356 12.8752567,11.4869992 13.0122194,11.5453705 L11.0822153,13.038353 L11.0822153,10.6132103 L11.0822789,10.6132103 L11.7527857,10.8406548 L11.5723307,11.1582633 C11.4363854,11.3975983 11.5201272,11.7017267 11.7593986,11.8376721 C11.8371634,11.8818638 11.9216682,11.9027834 12.0050921,11.9027834 C12.1785528,11.902847 12.3470538,11.8121744 12.4388709,11.6506042 Z M11.5977648,7.97798183 L11.5977648,8.6214013 C11.5977648,8.983901 11.73956,9.33012287 11.9856986,9.58827911 L11.9856986,9.86729133 L10.891078,9.49601687 L10.5339194,9.01620232 L10.3051396,7.94364578 C10.3612218,7.96551911 10.4220729,7.97798183 10.4859125,7.97798183 L11.5977648,7.97798183 L11.5977648,7.97798183 Z M10.1342223,6.858245 L10.5443474,6.98140969 L10.4859761,6.98140969 C10.347233,6.98140969 10.22197,7.03812777 10.1316154,7.1295634 L10.0682208,6.83249296 C10.0893311,6.84234868 10.1112045,6.85131421 10.1342223,6.858245 Z M8.30741718,11.2177156 L7.99731176,10.4292581 L8.26882091,10.1481475 L8.31066003,10.4156508 L8.40934439,11.0459717 L8.30741718,11.2177156 Z M8.6110369,4.47176217 L8.63182929,4.47627673 L8.7311495,5.33118085 C8.73292989,5.34688642 8.73553689,5.36227406 8.73877974,5.37759811 L9.541226,9.13974853 L9.2077212,9.70146092 L9.09860885,9.0046298 C9.09701922,8.99451974 9.09511166,8.9843461 9.09288618,8.97436321 L8.44539724,6.04053827 L8.6110369,4.47176217 Z M8.87745924,12.2097096 L10.0856432,10.1749169 L10.0856432,13.0804464 L8.87745924,12.2097096 Z M17.7748207,29.7733635 L17.7748207,30.2110846 L12.9521313,30.2110846 C12.6769342,30.2110846 12.4538135,30.4341418 12.4538135,30.7094025 C12.4538135,30.9846631 12.6769342,31.2077203 12.9521313,31.2077203 L18.7735547,31.2077203 L18.7735547,31.5590926 L18.7735547,31.5590926 L8.44056476,31.5590926 L8.44056476,31.2076567 L10.8879623,31.2076567 C11.1631594,31.2076567 11.3862802,30.9845996 11.3862802,30.7093389 C11.3862802,30.4340782 11.1631594,30.211021 10.8879623,30.211021 L9.43923521,30.211021 L9.43923521,29.7732999 L10.4194023,29.7732999 L16.611973,29.7732999 L17.7748207,29.7732999 L17.7748207,29.7733635 Z M16.967224,17.4348302 L16.8575394,16.2829828 L17.9647499,13.835013 L19.0300577,14.1703618 L18.6238749,14.9334487 C18.6238114,14.9335123 18.6237478,14.9336395 18.6237478,14.9337031 L17.8545566,16.3786786 C17.854493,16.3788694 17.8544294,16.3789965 17.8543023,16.3791873 L17.2396233,17.533896 L16.967224,17.4348302 Z" id="Shape"></path>
                        </g>
                    </g>
                </g>
            </g>
        </g>
    </g>
</svg>