<?xml version="1.0" encoding="UTF-8"?>
<svg width="25px" height="32px" viewBox="0 0 25 32" version="1.1" xmlns="http://www.w3.org/2000/svg" xmlns:xlink="http://www.w3.org/1999/xlink">
    <!-- Generator: Sketch 46.2 (44496) - http://www.bohemiancoding.com/sketch -->
    <title>030-big-ben</title>
    <desc>Created with Sketch.</desc>
    <defs></defs>
    <g id="Welcome" stroke="none" stroke-width="1" fill="none" fill-rule="evenodd" opacity="0.597203351">
        <g id="main" transform="translate(-1274.000000, -921.000000)" fill-rule="nonzero" fill="#000000">
            <g id="Group-9" transform="translate(1267.000000, 556.000000)">
                <g id="Group-12">
                    <g id="030-big-ben" transform="translate(6.982898, 364.968750)">
                        <path d="M24.2025575,24.4014332 L19.6778139,24.4014332 L19.6778139,16.4995928 C19.6778139,16.4989815 19.6777528,16.4983701 19.6777528,16.4977588 C19.6777528,16.4971474 19.6778139,16.496536 19.6778139,16.4959247 L19.6778139,15.584141 C19.6778139,15.3195439 19.4633485,15.1050174 19.1986903,15.1050174 C19.0237188,15.1050174 18.8711843,15.1991058 18.7874889,15.3390463 L18.7874889,13.6475329 L18.7874889,13.6471049 C18.7874889,13.6470438 18.7874889,13.6469826 18.7874889,13.6469215 L18.7874889,11.8232929 C18.7874889,11.5586959 18.5730235,11.3441693 18.3083654,11.3441693 C18.0437072,11.3441693 17.8292418,11.5586959 17.8292418,11.8232929 L17.8292418,12.3614128 L16.2886733,10.5805184 L16.2886733,7.42094381 L16.2886733,5.47742733 C16.2886733,5.21283031 16.0742079,4.99830375 15.8095497,4.99830375 C15.5448916,4.99830375 15.3304262,5.21283031 15.3304262,5.47742733 L15.3304262,5.72062672 C14.7388122,4.59217667 14.3514539,3.48194518 14.1335037,2.76255674 L14.2110242,2.76255674 C14.4756824,2.76255674 14.6901478,2.54803019 14.6901478,2.28343316 C14.6901478,2.01883614 14.4756824,1.80430958 14.2110242,1.80430958 L13.9244794,1.80430958 L13.9244794,0.47912358 C13.9244794,0.214526559 13.7100139,0 13.4453558,0 C13.1806976,0 12.9662322,0.214526559 12.9662322,0.47912358 L12.9662322,1.80437072 L12.6796262,1.80437072 C12.414968,1.80437072 12.2005026,2.01889728 12.2005026,2.2834943 C12.2005026,2.54809132 12.414968,2.76261788 12.6796262,2.76261788 L12.7578193,2.76261788 C12.540297,3.48170064 12.1531833,4.59174872 11.5603466,5.72148263 L11.5603466,5.47761074 C11.5603466,5.21301372 11.3458811,4.99848716 11.081223,4.99848716 C10.8165648,4.99848716 10.6020994,5.21301372 10.6020994,5.47761074 L10.6020994,7.42106608 L10.6020994,10.5806406 L9.06153093,12.3615351 L9.06153093,11.8234152 C9.06153093,11.5588182 8.84706551,11.3442916 8.58240735,11.3442916 C8.31774919,11.3442916 8.10328377,11.5588182 8.10328377,11.8234152 L8.10328377,13.6470438 C8.10328377,13.6471049 8.10328377,13.647166 8.10328377,13.6472272 L8.10328377,13.6476551 L8.10328377,15.3391075 C8.01964959,15.1991058 7.8670539,15.1050785 7.69208239,15.1050785 C7.42742423,15.1050785 7.21295881,15.3196051 7.21295881,15.5842021 L7.21295881,16.4959858 C7.21295881,16.4965972 7.21301995,16.4972085 7.21301995,16.4978199 C7.21301995,16.4984313 7.21295881,16.4990426 7.21295881,16.499654 L7.21295881,20.7200621 C7.21271427,20.7267259 7.2119195,20.7331452 7.2119195,20.7398702 C7.2119195,20.7465951 7.21265313,20.7530144 7.21295881,20.7596782 L7.21295881,23.4273518 C7.21271427,23.4340156 7.2119195,23.4404349 7.2119195,23.4471599 C7.2119195,23.4538848 7.21265313,23.4603041 7.21295881,23.466968 L7.21295881,26.0260026 C7.21271427,26.0326665 7.2119195,26.0390858 7.2119195,26.0458107 C7.2119195,26.0525357 7.21265313,26.058955 7.21295881,26.0656188 L7.21295881,28.006323 C7.21295881,28.2709201 7.42742423,28.4854466 7.69208239,28.4854466 L7.8485908,28.4854466 L7.8485908,30.3436782 L5.41855327,30.3436782 C5.15389512,30.3436782 4.93942969,30.5582048 4.93942969,30.8228018 C4.93942969,31.0873988 5.15389512,31.3019254 5.41855327,31.3019254 L21.7360217,31.3019254 C22.0006798,31.3019254 22.2151453,31.0873988 22.2151453,30.8228018 C22.2151453,30.5582048 22.0006798,30.3436782 21.7360217,30.3436782 L19.0420596,30.3436782 L19.0420596,28.4853244 L19.1985681,28.4853244 C19.4632262,28.4853244 19.6776916,28.2707978 19.6776916,28.0062008 L19.6776916,25.3598637 L24.2024352,25.3598637 C24.4670933,25.3598637 24.6815588,25.1453372 24.6815588,24.8807402 C24.681681,24.6159597 24.4671545,24.4014332 24.2025575,24.4014332 Z M13.4454169,3.75607943 C13.7562328,4.65478003 14.2348062,5.81881129 14.9193471,6.94182023 L11.9714868,6.94182023 C12.6560888,5.81881129 13.134601,4.65478003 13.4454169,3.75607943 Z M11.5603466,7.90000625 L15.3304873,7.90000625 L15.3304873,10.2678684 L15.0957858,10.2678684 L15.0957858,8.7532216 C15.0957858,8.48862458 14.8813204,8.27409802 14.6166622,8.27409802 C14.3520041,8.27409802 14.1375387,8.48862458 14.1375387,8.7532216 L14.1375387,10.2678684 L13.9244794,10.2678684 L13.9244794,8.7532216 C13.9244794,8.48862458 13.7100139,8.27409802 13.4453558,8.27409802 C13.1806976,8.27409802 12.9662322,8.48862458 12.9662322,8.7532216 L12.9662322,10.2678684 L12.7531729,10.2678684 L12.7531729,8.7532216 C12.7531729,8.48862458 12.5387075,8.27409802 12.2740493,8.27409802 C12.0093912,8.27409802 11.7949258,8.48862458 11.7949258,8.7532216 L11.7949258,10.2678684 L11.5602243,10.2678684 L11.5602243,7.90000625 L11.5603466,7.90000625 Z M11.3106056,11.2261155 L15.5802894,11.2261155 L17.2604927,13.1684093 L16.2886733,13.1684093 L16.2886733,12.9595684 C16.2886733,12.6949714 16.0742079,12.4804448 15.8095497,12.4804448 C15.5448916,12.4804448 15.3304262,12.6949714 15.3304262,12.9595684 L15.3304262,13.1684093 L14.7125848,13.1684093 L14.7125848,12.9595684 C14.7125848,12.6949714 14.4981194,12.4804448 14.2334612,12.4804448 C13.968803,12.4804448 13.7543376,12.6949714 13.7543376,12.9595684 L13.7543376,13.1684093 L13.1364351,13.1684093 L13.1364351,12.9595684 C13.1364351,12.6949714 12.9219697,12.4804448 12.6573115,12.4804448 C12.3926534,12.4804448 12.1781879,12.6949714 12.1781879,12.9595684 L12.1781879,13.1684093 L11.5603466,13.1684093 L11.5603466,12.9595684 C11.5603466,12.6949714 11.3458811,12.4804448 11.081223,12.4804448 C10.8165648,12.4804448 10.6020994,12.6949714 10.6020994,12.9595684 L10.6020994,13.1684093 L9.63034116,13.1684093 L11.3106056,11.2261155 Z M9.06146979,14.1266564 L9.06159207,14.1266564 L17.8292418,14.1266564 L17.8292418,16.0204693 L17.3292097,16.0204693 L17.3292097,14.9865356 C17.3292097,14.7219386 17.1147442,14.507412 16.8500861,14.507412 C16.5854279,14.507412 16.3709625,14.7219386 16.3709625,14.9865356 L16.3709625,16.0204693 L16.1942792,16.0204693 L16.1942792,14.9865356 C16.1942792,14.7219386 15.9798138,14.507412 15.7151556,14.507412 C15.4504974,14.507412 15.236032,14.7219386 15.236032,14.9865356 L15.236032,16.0204693 L15.0593487,16.0204693 L15.0593487,14.9865356 C15.0593487,14.7219386 14.8448833,14.507412 14.5802251,14.507412 C14.315567,14.507412 14.1011015,14.7219386 14.1011015,14.9865356 L14.1011015,16.0204693 L13.9244182,16.0204693 L13.9244182,14.9865356 C13.9244182,14.7219386 13.7099528,14.507412 13.4452947,14.507412 C13.1806365,14.507412 12.9661711,14.7219386 12.9661711,14.9865356 L12.9661711,16.0204693 L12.7894878,16.0204693 L12.7894878,14.9865356 C12.7894878,14.7219386 12.5750223,14.507412 12.3103642,14.507412 C12.045706,14.507412 11.8312406,14.7219386 11.8312406,14.9865356 L11.8312406,16.0204693 L11.6545573,16.0204693 L11.6545573,14.9865356 C11.6545573,14.7219386 11.4400919,14.507412 11.1754337,14.507412 C10.9107755,14.507412 10.6963101,14.7219386 10.6963101,14.9865356 L10.6963101,16.0204693 L10.5196268,16.0204693 L10.5196268,14.9865356 C10.5196268,14.7219386 10.3051614,14.507412 10.0405032,14.507412 C9.77584507,14.507412 9.56137965,14.7219386 9.56137965,14.9865356 L9.56137965,16.0204693 L9.06134752,16.0204693 L9.06134752,14.1266564 L9.06146979,14.1266564 Z M15.7832612,27.5268938 L15.6146479,27.5268938 L15.6146479,27.2205408 C15.6146479,27.1740162 15.6524911,27.1362953 15.6988934,27.1362953 C15.7452957,27.1362953 15.7832001,27.1741385 15.7832001,27.2205408 L15.7832001,27.5268938 L15.7832612,27.5268938 Z M10.0766958,25.628618 L10.0766958,18.8911146 L16.8141992,18.8911146 L16.8141992,25.6285569 L10.0766958,25.6285569 L10.0766958,25.628618 Z M14.656523,27.2205408 L14.656523,27.5268938 L14.4879096,27.5268938 L14.4879096,27.2205408 L14.4879708,27.2205408 C14.4879708,27.1740162 14.525814,27.1362953 14.5722163,27.1362953 C14.6186186,27.1362953 14.656523,27.1740774 14.656523,27.2205408 Z M13.5297236,27.2205408 L13.5297236,27.5268938 L13.3611102,27.5268938 L13.3611102,27.2205408 L13.3611714,27.2205408 C13.3611714,27.1740162 13.3990146,27.1362953 13.4454169,27.1362953 C13.4918192,27.1362953 13.5297236,27.1740774 13.5297236,27.2205408 Z M12.4029242,27.2205408 L12.4029242,27.5268938 L12.2343109,27.5268938 L12.2343109,27.2205408 L12.234372,27.2205408 C12.234372,27.1740162 12.2722153,27.1362953 12.3186176,27.1362953 C12.3650198,27.1362953 12.4029242,27.1740774 12.4029242,27.2205408 Z M11.2761249,27.2205408 L11.2761249,27.5268938 L11.1075726,27.5268938 L11.1075726,27.2205408 L11.1076338,27.2205408 C11.1076338,27.1740162 11.145477,27.1362953 11.1918793,27.1362953 C11.2382816,27.1362953 11.2761249,27.1740774 11.2761249,27.2205408 Z M10.746136,17.9329286 L10.0765735,17.9329286 L10.0765735,16.9786553 L10.7455247,16.9786553 C10.4994519,16.9988302 10.3059562,17.2045532 10.3059562,17.4557614 C10.3060173,17.7072141 10.4998187,17.9130594 10.746136,17.9329286 Z M10.1493255,27.2205408 L10.1493255,27.5268938 L9.98071212,27.5268938 L9.98071212,27.2205408 L9.98077326,27.2205408 C9.98077326,27.1740162 10.0186165,27.1362953 10.0650188,27.1362953 C10.1114211,27.1362953 10.1493255,27.1740774 10.1493255,27.2205408 Z M11.0251,16.9786553 L12.0256534,16.9786553 C11.7795806,16.9988302 11.5860849,17.2045532 11.5860849,17.4557614 C11.5860849,17.7072141 11.7798863,17.9129982 12.0262036,17.9328675 L11.0244275,17.9328675 C11.270806,17.9129982 11.4645463,17.707153 11.4645463,17.4557614 C11.4646074,17.204492 11.2711728,16.9987691 11.0251,16.9786553 Z M12.3050453,16.9786553 L13.3056598,16.9786553 C13.059587,16.9988302 12.8660913,17.2045532 12.8660913,17.4557614 C12.8660913,17.7072141 13.0598927,17.9129982 13.30621,17.9328675 L12.304434,17.9328675 C12.5508124,17.9129982 12.7445527,17.707153 12.7445527,17.4557614 C12.7446139,17.2045532 12.5511181,16.9988302 12.3050453,16.9786553 Z M13.585174,16.9786553 L14.5857885,16.9786553 C14.3397157,16.9988302 14.14622,17.2045532 14.14622,17.4557614 C14.14622,17.7072141 14.3400214,17.9129982 14.5863387,17.9328675 L13.5845627,17.9328675 C13.8309411,17.9129982 14.0246814,17.707153 14.0246814,17.4557614 C14.0246814,17.2045532 13.8312468,16.9988302 13.585174,16.9786553 Z M14.8651193,16.9786553 L15.8657949,16.9786553 C15.6197222,16.9988302 15.4262264,17.2045532 15.4262264,17.4557614 C15.4262264,17.7072141 15.6200278,17.9129982 15.8663452,17.9328675 L14.864508,17.9328675 C15.1108864,17.9129982 15.3046267,17.707153 15.3046267,17.4557614 C15.3046879,17.2045532 15.1111921,16.9988302 14.8651193,16.9786553 Z M16.145248,16.9786553 L16.8141381,16.9786553 L16.8141381,17.9329286 L16.1446367,17.9329286 C16.3910151,17.9130594 16.5847554,17.7072141 16.5847554,17.4558225 C16.5848166,17.2045532 16.3913208,16.9988302 16.145248,16.9786553 Z M16.7415695,27.2205408 C16.7415695,27.1740162 16.7794128,27.1362953 16.8258151,27.1362953 C16.8722785,27.1362953 16.9100606,27.1741385 16.9100606,27.2205408 L16.9100606,27.5268938 L16.7415695,27.5268938 L16.7415695,27.2205408 Z M8.17138938,16.9786553 L9.11850977,16.9786553 L9.11850977,17.9329286 L8.17138938,17.9329286 L8.17138938,16.9786553 Z M8.17138938,18.8911146 L9.11850977,18.8911146 L9.11850977,20.2606854 L8.17138938,20.2606854 L8.17138938,18.8911146 Z M8.17138938,21.2188715 L9.11850977,21.2188715 L9.11850977,22.9678529 L8.17138938,22.9678529 L8.17138938,21.2188715 Z M8.17138938,23.9261 L9.11850977,23.9261 L9.11850977,25.5664426 L8.17138938,25.5664426 L8.17138938,23.9261 Z M8.17138938,26.5246898 L9.29109697,26.5246898 C9.12480679,26.7094431 9.02258724,26.9530093 9.02258724,27.2206019 L9.02258724,27.5269549 L8.17138938,27.5269549 L8.17138938,26.5246898 Z M9.98077326,30.3434337 L9.98077326,30.0371419 C9.98077326,29.9906173 10.0186165,29.9528963 10.0650188,29.9528963 C10.1114211,29.9528963 10.1492643,29.9907396 10.1492643,30.0371419 L10.1492643,30.3434337 L9.98077326,30.3434337 Z M11.2761249,30.3434337 L11.1075726,30.3434337 L11.1075726,30.0371419 L11.1076338,30.0371419 C11.1076338,29.9906173 11.145477,29.9528963 11.1918793,29.9528963 C11.2382816,29.9528963 11.2761249,29.9907396 11.2761249,30.0371419 L11.2761249,30.3434337 L11.2761249,30.3434337 Z M12.4029242,30.3434337 L12.2343109,30.3434337 L12.2343109,30.0371419 L12.234372,30.0371419 C12.234372,29.9906173 12.2722153,29.9528963 12.3186176,29.9528963 C12.3650198,29.9528963 12.4029242,29.9907396 12.4029242,30.0371419 L12.4029242,30.3434337 L12.4029242,30.3434337 Z M13.5297236,30.3434337 L13.3611102,30.3434337 L13.3611102,30.0371419 L13.3611714,30.0371419 C13.3611714,29.9906173 13.3990146,29.9528963 13.4454169,29.9528963 C13.4918192,29.9528963 13.5296625,29.9907396 13.5296625,30.0371419 L13.5296625,30.3434337 L13.5297236,30.3434337 Z M14.656523,30.3434337 L14.4879096,30.3434337 L14.4879096,30.0371419 L14.4879708,30.0371419 C14.4879708,29.9906173 14.525814,29.9528963 14.5722163,29.9528963 C14.6186186,29.9528963 14.6564618,29.9907396 14.6564618,30.0371419 L14.6564618,30.3434337 L14.656523,30.3434337 Z M15.7833224,30.3434337 L15.6146479,30.3434337 L15.6146479,30.0371419 L15.614709,30.0371419 C15.614709,29.9906173 15.6525522,29.9528963 15.6989545,29.9528963 C15.7453568,29.9528963 15.7832612,29.9907396 15.7832612,30.0371419 L15.7832612,30.3434337 L15.7833224,30.3434337 Z M16.9100606,30.3434337 L16.7414472,30.3434337 L16.7414472,30.0371419 L16.7415084,30.0371419 C16.7415084,29.9906173 16.7793516,29.9528963 16.8257539,29.9528963 C16.8722173,29.9528963 16.9099995,29.9907396 16.9099995,30.0371419 L16.9099995,30.3434337 L16.9100606,30.3434337 Z M18.0843016,30.3434337 L18.0839959,30.3434337 L17.8683689,30.3434337 L17.8683689,30.0371419 C17.8683689,29.4622792 17.4006778,28.9946492 16.8258762,28.9946492 C16.618258,28.9946492 16.4251291,29.0563355 16.2625071,29.1613062 C16.0998239,29.0562744 15.906695,28.9946492 15.6990768,28.9946492 C15.4914586,28.9946492 15.2983297,29.0563355 15.1357077,29.1613062 C14.9730857,29.0562744 14.7798956,28.9946492 14.5723386,28.9946492 C14.3647815,28.9946492 14.1715915,29.0563355 14.0089695,29.1613062 C13.8463474,29.0562744 13.6531574,28.9946492 13.4456003,28.9946492 C13.2379822,28.9946492 13.0448532,29.0563355 12.8822312,29.1613062 C12.7195481,29.0562744 12.5264191,28.9946492 12.318801,28.9946492 C12.1111828,28.9946492 11.9180539,29.0563355 11.7554318,29.1613062 C11.5928098,29.0562744 11.3996198,28.9946492 11.1920627,28.9946492 C10.9845057,28.9946492 10.7913156,29.0563355 10.6286936,29.1613062 C10.4660716,29.0562744 10.2728815,28.9946492 10.0653245,28.9946492 C9.49052291,28.9946492 9.02283178,29.4623403 9.02283178,30.0371419 L9.02283178,30.3434337 L8.80726591,30.3434337 L8.80726591,28.4851409 L18.0842404,28.4851409 L18.0842404,30.3434337 L18.0843016,30.3434337 Z M18.7195667,27.5268327 L17.8683689,27.5268327 L17.8683689,27.2205408 C17.8683689,26.9529481 17.7661493,26.7094431 17.5998592,26.5246286 L18.7195667,26.5246286 L18.7195667,27.5268327 Z M18.7195667,25.5664426 L17.7723852,25.5664426 L17.7723852,23.9261 L18.7195667,23.9261 L18.7195667,25.5664426 Z M18.7195667,22.967914 L17.7723852,22.967914 L17.7723852,21.2189326 L18.7195667,21.2189326 L18.7195667,22.967914 Z M18.7195667,20.2606854 L17.7723852,20.2606854 L17.7723852,18.8911146 L18.7195667,18.8911146 L18.7195667,20.2606854 Z M18.7195667,17.9329286 L17.7723852,17.9329286 L17.7723852,16.9786553 L18.7195667,16.9786553 L18.7195667,17.9329286 Z" id="Shape"></path>
                        <path d="M23.7993038,30.3434948 L23.0027005,30.3434948 C22.7380423,30.3434948 22.5235769,30.5580214 22.5235769,30.8226184 C22.5235769,31.0872154 22.7380423,31.301742 23.0027005,31.301742 L23.7993038,31.301742 C24.0639619,31.301742 24.2784274,31.0872154 24.2784274,30.8226184 C24.2784274,30.5579603 24.0639619,30.3434948 23.7993038,30.3434948 Z" id="Shape"></path>
                        <path d="M5.41873668,14.7237115 L0.485909687,14.7237115 C0.221251529,14.7237115 0.00678610659,14.9382381 0.00678610659,15.2028351 C0.00678610659,15.4674321 0.221251529,15.6819587 0.485909687,15.6819587 L5.41873668,15.6819587 C5.6833337,15.6819587 5.89786026,15.4674321 5.89786026,15.2028351 C5.89786026,14.9382381 5.68339484,14.7237115 5.41873668,14.7237115 Z" id="Shape"></path>
                        <path d="M23.0526486,22.967914 L21.736144,22.967914 C21.4714858,22.967914 21.2570204,23.1824406 21.2570204,23.4470376 C21.2570204,23.7116346 21.4715469,23.9261612 21.736144,23.9261612 L23.0526486,23.9261612 C23.3173068,23.9261612 23.5317722,23.7116346 23.5317722,23.4470376 C23.5317722,23.1824406 23.3173068,22.967914 23.0526486,22.967914 Z" id="Shape"></path>
                        <path d="M5.04201606,9.65993103 L3.72551138,9.65993103 C3.46085323,9.65993103 3.2463878,9.87445759 3.2463878,10.1390546 C3.2463878,10.4036516 3.46085323,10.6181782 3.72551138,10.6181782 L5.04201606,10.6181782 C5.30667422,10.6181782 5.52113964,10.4036516 5.52113964,10.1390546 C5.52113964,9.87445759 5.30667422,9.65993103 5.04201606,9.65993103 Z" id="Shape"></path>
                        <path d="M24.4576173,14.507412 L23.1411126,14.507412 C22.8764544,14.507412 22.661989,14.7219386 22.661989,14.9865356 C22.661989,15.2511326 22.8764544,15.4656592 23.1411126,15.4656592 L24.4576173,15.4656592 C24.7222754,15.4656592 24.9367408,15.2511326 24.9367408,14.9865356 C24.9367408,14.7219386 24.7222754,14.507412 24.4576173,14.507412 Z" id="Shape"></path>
                        <path d="M6.796622,12.8921964 L4.38376372,12.8921964 C4.11910557,12.8921964 3.90464014,13.106723 3.90464014,13.37132 C3.90464014,13.635917 4.11910557,13.8504436 4.38376372,13.8504436 L6.796622,13.8504436 C7.06128016,13.8504436 7.27574558,13.635917 7.27574558,13.37132 C7.27574558,13.106723 7.06128016,12.8921964 6.796622,12.8921964 Z" id="Shape"></path>
                        <path d="M11.8693284,11.3605538 C11.6046702,11.3605538 11.3902048,11.5750804 11.3902048,11.8396774 L11.3902048,12.0261425 C11.3902048,12.2907395 11.6047314,12.505266 11.8693284,12.505266 C12.1339865,12.505266 12.348452,12.2907395 12.348452,12.0261425 L12.348452,11.8396774 C12.3483908,11.5750192 12.1339865,11.3605538 11.8693284,11.3605538 Z" id="Shape"></path>
                        <path d="M13.4454169,11.3605538 C13.1807588,11.3605538 12.9662933,11.5750804 12.9662933,11.8396774 L12.9662933,12.0261425 C12.9662933,12.2907395 13.1808199,12.505266 13.4454169,12.505266 C13.7100751,12.505266 13.9245405,12.2907395 13.9245405,12.0261425 L13.9245405,11.8396774 C13.9245405,11.5750192 13.7100751,11.3605538 13.4454169,11.3605538 Z" id="Shape"></path>
                        <path d="M15.0215055,11.3605538 C14.7568473,11.3605538 14.5423819,11.5750804 14.5423819,11.8396774 L14.5423819,12.0261425 C14.5423819,12.2907395 14.7568473,12.505266 15.0215055,12.505266 C15.2861636,12.505266 15.500629,12.2907395 15.500629,12.0261425 L15.500629,11.8396774 C15.500629,11.5750192 15.2861636,11.3605538 15.0215055,11.3605538 Z" id="Shape"></path>
                        <path d="M13.4454169,19.1249602 C11.716855,19.1249602 10.3105414,20.5312738 10.3105414,22.2598358 C10.3105414,23.9883977 11.716855,25.3947113 13.4454169,25.3947113 C15.17404,25.3947113 16.5802925,23.9883977 16.5802925,22.2598358 C16.5803536,20.5312738 15.1739789,19.1249602 13.4454169,19.1249602 Z M13.4454169,24.4365253 C12.245132,24.4365253 11.2687274,23.4600596 11.2687274,22.2598358 C11.2687274,21.0596119 12.245132,20.0831462 13.4454169,20.0831462 C14.6457019,20.0831462 15.6221065,21.0596119 15.6221065,22.2598358 C15.6221065,23.4600596 14.6457019,24.4365253 13.4454169,24.4365253 Z" id="Shape"></path>
                        <path d="M14.4339876,21.7807122 L13.9245405,21.7807122 L13.9245405,20.9046319 C13.9245405,20.6400349 13.7100751,20.4255083 13.4454169,20.4255083 C13.1807588,20.4255083 12.9662933,20.6400349 12.9662933,20.9046319 L12.9662933,22.2598358 C12.9662933,22.5244328 13.1808199,22.7389593 13.4454169,22.7389593 L14.4339876,22.7389593 C14.6986457,22.7389593 14.9131112,22.5244328 14.9131112,22.2598358 C14.9131112,21.9952387 14.6986457,21.7807122 14.4339876,21.7807122 Z" id="Shape"></path>
                    </g>
                </g>
            </g>
        </g>
    </g>
</svg>